<svg xmlns="http://www.w3.org/2000/svg" width="1200" height="1200" version="1.0" viewBox="0 0 900 900"><path fill="#00c896" fill-rule="evenodd" d="M575.375 147.383 457.551 29.555c-4.16-4.157-10.903-4.157-15.063 0L324.664 147.383H158.035c-5.883 0-10.652 4.77-10.652 10.652v166.63L29.555 442.487c-4.157 4.16-4.157 10.903 0 15.063l117.828 117.824v166.629c0 5.883 4.77 10.652 10.652 10.652h166.63l117.823 117.828c4.16 4.157 10.903 4.157 15.063 0l117.824-117.828h166.629c5.883 0 10.652-4.77 10.652-10.652V575.375l117.828-117.824c4.157-4.16 4.157-10.903 0-15.063L752.656 324.664V158.035c0-5.883-4.77-10.652-10.652-10.652Zm-11.945 18.183c2 1.996 4.71 3.121 7.535 3.121h160.39v160.387c0 2.824 1.122 5.535 3.118 7.535l113.414 113.41-113.414 113.41c-1.996 2-3.118 4.712-3.118 7.536v160.39h-160.39a10.67 10.67 0 0 0-7.535 3.118L450.02 847.887 336.605 734.473a10.65 10.65 0 0 0-7.53-3.118H168.687v-160.39c0-2.824-1.125-5.535-3.122-7.535L52.152 450.02l113.414-113.415a10.66 10.66 0 0 0 3.121-7.53V168.687h160.387c2.824 0 5.535-1.125 7.531-3.122L450.02 52.152zm0 0"/></svg>