<svg xmlns="http://www.w3.org/2000/svg" xmlns:xlink="http://www.w3.org/1999/xlink" width="1200" zoomAndPan="magnify" viewBox="0 0 900 899.99999" height="1200" preserveAspectRatio="xMidYMid meet" version="1.0"><path fill="#ffb627" d="M 575.375 147.382812 L 457.550781 29.554688 C 453.390625 25.398438 446.648438 25.398438 442.488281 29.554688 L 324.664062 147.382812 C 324.664062 147.382812 158.035156 147.382812 158.035156 147.382812 C 152.152344 147.382812 147.382812 152.152344 147.382812 158.035156 L 147.382812 324.664062 C 147.382812 324.664062 29.554688 442.488281 29.554688 442.488281 C 25.398438 446.648438 25.398438 453.390625 29.554688 457.550781 L 147.382812 575.375 C 147.382812 575.375 147.382812 742.003906 147.382812 742.003906 C 147.382812 747.886719 152.152344 752.65625 158.035156 752.65625 L 324.664062 752.65625 C 324.664062 752.65625 442.488281 870.484375 442.488281 870.484375 C 446.648438 874.640625 453.390625 874.640625 457.550781 870.484375 L 575.375 752.65625 C 575.375 752.65625 742.003906 752.65625 742.003906 752.65625 C 747.886719 752.65625 752.65625 747.886719 752.65625 742.003906 L 752.65625 575.375 C 752.65625 575.375 870.484375 457.550781 870.484375 457.550781 C 874.640625 453.390625 874.640625 446.648438 870.484375 442.488281 L 752.65625 324.664062 C 752.65625 324.664062 752.65625 158.035156 752.65625 158.035156 C 752.65625 152.152344 747.886719 147.382812 742.003906 147.382812 Z M 563.429688 165.566406 C 565.429688 167.5625 568.140625 168.6875 570.964844 168.6875 L 731.355469 168.6875 C 731.355469 168.6875 731.355469 329.074219 731.355469 329.074219 C 731.355469 331.898438 732.476562 334.609375 734.472656 336.609375 L 847.886719 450.019531 C 847.886719 450.019531 734.472656 563.429688 734.472656 563.429688 C 732.476562 565.429688 731.355469 568.140625 731.355469 570.964844 L 731.355469 731.355469 C 731.355469 731.355469 570.964844 731.355469 570.964844 731.355469 C 568.140625 731.355469 565.429688 732.476562 563.429688 734.472656 L 450.019531 847.886719 C 450.019531 847.886719 336.605469 734.472656 336.605469 734.472656 C 334.609375 732.476562 331.898438 731.355469 329.074219 731.355469 L 168.6875 731.355469 C 168.6875 731.355469 168.6875 570.964844 168.6875 570.964844 C 168.6875 568.140625 167.5625 565.429688 165.566406 563.429688 L 52.152344 450.019531 C 52.152344 450.019531 165.566406 336.605469 165.566406 336.605469 C 167.5625 334.609375 168.6875 331.898438 168.6875 329.074219 L 168.6875 168.6875 C 168.6875 168.6875 329.074219 168.6875 329.074219 168.6875 C 331.898438 168.6875 334.609375 167.5625 336.605469 165.566406 L 450.019531 52.152344 C 450.019531 52.152344 563.429688 165.566406 563.429688 165.566406 Z M 563.429688 165.566406 " fill-opacity="1" fill-rule="evenodd"/></svg>