<svg xmlns="http://www.w3.org/2000/svg" width="1200" height="1200" version="1.0" viewBox="0 0 900 900"><defs><clipPath id="a"><path d="M28.293 46.918H872v806.25H28.293Zm0 0"/></clipPath></defs><g clip-path="url(#a)"><path fill="#7b6248" d="m449.996 853.035-63.93-27.05c-10.503-4.446-47.148-21-77.554-47.348a91.6 91.6 0 0 1-31.282-67.59c-32.761 2.683-58.613-4.399-76.933-21.098-21.3-19.418-27.254-47.453-28.406-68.097a91.406 91.406 0 0 1-19.414-2.047 91.4 91.4 0 0 1-18.543-6.114 91 91 0 0 1-8.676-4.5 92 92 0 0 1-8.149-5.398 92 92 0 0 1-7.527-6.238 92 92 0 0 1-6.816-7.004c-26.348-30.406-42.903-67.047-47.348-77.555l-27.05-63.93 27.05-63.93c4.445-10.507 21-47.148 47.348-77.554a93 93 0 0 1 6.828-7.012 92 92 0 0 1 7.539-6.242 91 91 0 0 1 8.164-5.406 92 92 0 0 1 8.691-4.504 92 92 0 0 1 9.125-3.547 91 91 0 0 1 9.45-2.558 92 92 0 0 1 9.667-1.536q4.874-.51 9.778-.492c1.402-20.258 7.59-47.633 28.613-66.57 18.3-16.488 44.043-23.477 76.61-20.809q.07-4.797.64-9.558a92 92 0 0 1 4.254-18.664 92 92 0 0 1 8.04-17.368 91 91 0 0 1 5.335-7.96 91 91 0 0 1 6.14-7.36 91 91 0 0 1 6.872-6.676c30.414-26.351 67.05-42.902 77.554-47.347l63.93-27.055 63.934 27.05c10.504 4.446 47.14 20.997 77.55 47.348a91 91 0 0 1 6.875 6.676 92 92 0 0 1 6.137 7.36 91 91 0 0 1 5.336 7.96 91.3 91.3 0 0 1 8.04 17.368 91.093 91.093 0 0 1 4.254 18.664q.573 4.765.644 9.558c32.562-2.668 58.308 4.32 76.609 20.809 21.02 18.937 27.21 46.316 28.613 66.574a92 92 0 0 1 9.778.492q4.875.51 9.668 1.536a92 92 0 0 1 18.574 6.109 92.21 92.21 0 0 1 16.855 9.906 91.816 91.816 0 0 1 14.367 13.258c26.348 30.406 42.903 67.047 47.348 77.555l27.05 63.925-27.05 63.93c-4.445 10.508-21 47.149-47.348 77.555a91.928 91.928 0 0 1-14.344 13.242 92 92 0 0 1-8.148 5.398 91 91 0 0 1-8.68 4.5 92 92 0 0 1-9.105 3.555 91 91 0 0 1-9.433 2.559 91.6 91.6 0 0 1-19.415 2.047c-1.156 20.648-7.109 48.68-28.41 68.097-18.32 16.7-44.172 23.781-76.933 21.102a91 91 0 0 1-.645 9.562 91 91 0 0 1-1.637 9.442 92 92 0 0 1-2.613 9.218 92 92 0 0 1-8.039 17.372 91.5 91.5 0 0 1-11.476 15.316 91 91 0 0 1-6.872 6.68c-30.41 26.347-67.05 42.898-77.554 47.343Zm-146.703-170.52v26.665q-.029 3.516.324 7.015a65.589 65.589 0 0 0 2.887 13.73 66 66 0 0 0 2.523 6.555 65 65 0 0 0 3.215 6.247 65 65 0 0 0 3.86 5.87 65.43 65.43 0 0 0 9.488 10.332c21.863 18.946 50.828 34.653 70.64 43.04l53.766 22.75 53.77-22.75c19.812-8.387 48.773-24.094 70.64-43.04a66 66 0 0 0 5.02-4.913 65 65 0 0 0 4.469-5.422 66 66 0 0 0 3.863-5.867 65.586 65.586 0 0 0 5.738-12.8 66 66 0 0 0 2.883-13.732c.234-2.336.344-4.672.324-7.02v-26.663l21.25 1.82c28.688 3.61 50.274-.984 64.168-13.66 18.652-17.004 20.574-45.684 20.07-61.27l-.453-13.632h26.028a65.8 65.8 0 0 0 20.75-3.211 65.6 65.6 0 0 0 12.8-5.739 66 66 0 0 0 5.868-3.863 65.532 65.532 0 0 0 10.336-9.488c18.945-21.864 34.652-50.824 43.035-70.64l22.754-53.767-22.754-53.769c-8.383-19.813-24.094-48.773-43.035-70.637a65 65 0 0 0-4.915-5.023 65.3 65.3 0 0 0-11.289-8.328 65 65 0 0 0-6.246-3.215 66 66 0 0 0-6.554-2.524 65.6 65.6 0 0 0-13.73-2.886 65 65 0 0 0-7.02-.325h-25.778l.246-13.312c.32-15.27-1.89-43.363-20.316-59.965-13.902-12.523-35.414-17.05-63.957-13.465l-.52.055-20.746 1.766v-26.657a66 66 0 0 0-.324-7.015 66 66 0 0 0-1.074-6.946 66 66 0 0 0-1.813-6.785 65.2 65.2 0 0 0-5.738-12.804 65.5 65.5 0 0 0-8.328-11.29 66 66 0 0 0-5.02-4.914c-21.859-18.945-50.82-34.656-70.632-43.035l-53.77-22.754-53.766 22.754c-19.812 8.38-48.773 24.09-70.64 43.035a66 66 0 0 0-5.024 4.915 65 65 0 0 0-4.464 5.421 66 66 0 0 0-3.864 5.868 66 66 0 0 0-5.738 12.804 65.8 65.8 0 0 0-3.21 20.746v26.664l-21.25-1.82c-28.54-3.59-50.056.941-63.958 13.469-18.426 16.601-20.637 44.691-20.316 59.96l.28 13.313h-25.82a66 66 0 0 0-7.015.325 66 66 0 0 0-6.945 1.074 66 66 0 0 0-6.786 1.812 65.2 65.2 0 0 0-12.804 5.738 66 66 0 0 0-5.867 3.864 65 65 0 0 0-10.332 9.488c-18.95 21.86-34.657 50.82-43.043 70.633l-22.75 53.77 22.75 53.769c8.386 19.812 24.093 48.773 43.039 70.637a65.5 65.5 0 0 0 16.203 13.351 65 65 0 0 0 6.246 3.215 65.853 65.853 0 0 0 13.344 4.336q3.444.721 6.941 1.074c2.336.235 4.672.34 7.02.324h25.945l-.371 13.641c-.508 15.578 1.418 44.262 20.07 61.266 13.895 12.668 35.48 17.261 64.164 13.66l.524-.055Zm0 0"/></g></svg>