<svg xmlns="http://www.w3.org/2000/svg" width="1200" height="1200" version="1.0" viewBox="0 0 900 900"><path fill="#7b6248" d="M698.113 697.86c-.226 86.304-92.172 113.663-163.476 118.628-21.66 4.004-40.727 13.653-57.817 27.301-11.398 6.488-14.894 31.645-25.554 28.938-16.414 3.214-11.508-20.364-37.004-35.649-36.047-26.797-81.965-20.254-122.746-33.621-47.106-13.594-91.215-53.195-89.692-105.371-87.324-1.3-112.82-91.383-118.46-163.531-4.005-21.664-13.653-40.73-27.302-57.766-6.093-11.055-31.476-14.945-28.94-25.328-3.044-16.977 20.081-11.168 35.933-37.566 25.722-34.75 20.363-78.637 32.097-118.235 12.805-49.64 53.309-94.598 107.067-94.43-2.258-44 31.304-81.058 69.89-97.53 29.391-13.88 61.993-15.684 93.582-20.536 21.887-3.89 41.122-13.82 58.16-27.863 10.66-6.094 13.762-30.461 24.594-28.207 16.582-3.047 12.746 20.87 34.465 33.734 34.016 27.133 78.13 22.676 117.953 33.395 49.582 12.183 99.168 52.289 96.969 107.402 88.336 1.41 113.043 92.68 119.023 165.395 4.118 21.039 13.707 39.597 27.075 56.183 6.77 11.504 31.703 14.664 28.715 25.61 3.27 15.625-21.438 13.425-32.946 33.109-27.754 34.015-23.41 78.523-34.015 118.687-12.125 49.754-52.29 99.336-107.57 97.25m-20.648-526.075c-11.45-34.355-47.778-54.66-81.172-63.687-38.977-9.871-81.172-6.77-115.469-30.856 21.38 29.953 82.133 39.262 116.43 49.586 31.023 6.543 56.351 25.043 80.21 44.957m144.578 247.692c.172-.168.394-.395.566-.563-15.402-22.902-21.55-49.473-23.863-76.605-4.965-47.043-22.676-101.368-70.34-120.32 14.157 20.534 33.055 39.261 39.485 64.421 15.175 43.488 19.011 100.406 54.152 133.067M171.645 677.89c.113-.114.167-.282.28-.395-23.183-25.328-40.331-55.168-47.327-89.07-9.024-32.492-19.856-86.703-46.762-108.024-.172.168-.281.336-.453.504 14.101 22.172 21.719 47.5 23.469 73.672 4.625 48.004 22 104.074 70.793 123.313m247.242 144.578c.168-.227.336-.399.508-.621-28.657-31.59-78.692-37.344-117.895-49.192-30.687-6.543-55.566-25.156-79.258-44.789 10.551 31.703 42.758 51.785 73.504 61.543 41.008 12.863 86.531 7.278 123.14 33.059m309.12-145.032c.114.172.227.282.34.454 33.395-12.918 53.477-46.032 62.727-79.2 10.774-39.71 6.883-83.035 31.649-118.12-30.125 21.605-39.262 81.847-49.641 116.484-6.996 30.629-24.312 57.199-45.074 80.383m-308.5-599.855c-.171-.172-.284-.281-.452-.453-23.016 15.344-49.582 21.605-76.828 23.918-46.989 4.965-101.426 22.734-120.32 70.398 25.89-21.66 54.374-39.992 88.222-46.648 34.07-10.324 86.418-18.844 109.379-47.215M171.814 222.328c-31.704 10.379-51.672 42.871-61.372 73.5-12.808 41.012-7.336 86.477-33.058 123.14 30.234-21.66 39.316-82.976 49.867-117.554 6.543-30.574 24.988-55.45 44.563-79.086m506.05 506.106c-.226-.114-.398-.282-.62-.395-39.544 40.387-89.638 45.465-140.462 61.879-19.8 8.52-43.21 13.594-56.351 32.152.168.172.336.285.507.453 36.329-25.949 82.301-20.308 123.141-33.168 31.137-9.648 61.598-29.503 73.785-60.921m0 0"/></svg>