<svg xmlns="http://www.w3.org/2000/svg" xmlns:xlink="http://www.w3.org/1999/xlink" width="1200" zoomAndPan="magnify" viewBox="0 0 900 899.99999" height="1200" preserveAspectRatio="xMidYMid meet" version="1.0"><defs><clipPath id="f6b78a6b09"><path d="M 23.410156 23.410156 L 876.910156 23.410156 L 876.910156 876.910156 L 23.410156 876.910156 Z M 23.410156 23.410156 " clip-rule="nonzero"/></clipPath></defs><path fill="#ffb627" d="M 592.304688 793.65625 L 307.6875 793.65625 L 106.339844 592.304688 L 106.339844 307.6875 L 108.726562 305.46875 L 307.6875 106.339844 L 592.304688 106.339844 L 793.65625 307.6875 L 793.65625 592.304688 Z M 314.171875 777.785156 L 585.820312 777.785156 L 777.785156 585.820312 L 777.785156 314.171875 L 585.820312 122.207031 L 314.171875 122.207031 L 122.207031 314.171875 L 122.207031 585.820312 Z M 314.171875 777.785156 " fill-opacity="1" fill-rule="nonzero"/><path fill="#ffb627" d="M 608.003906 831.363281 L 291.988281 831.363281 L 68.628906 608.003906 L 68.628906 291.988281 L 291.988281 68.628906 L 608.003906 68.628906 L 831.363281 291.988281 L 831.363281 608.003906 Z M 298.472656 815.667969 L 601.347656 815.667969 L 815.496094 601.519531 L 815.496094 298.472656 L 601.519531 84.328125 L 298.472656 84.328125 L 84.328125 298.472656 L 84.328125 601.347656 Z M 298.472656 815.667969 " fill-opacity="1" fill-rule="nonzero"/><path fill="#ffb627" d="M 751.679688 751.679688 L 148.316406 751.679688 L 148.316406 148.316406 L 751.679688 148.316406 Z M 164.183594 735.808594 L 735.980469 735.808594 L 735.980469 164.183594 L 164.183594 164.183594 Z M 164.183594 735.808594 " fill-opacity="1" fill-rule="nonzero"/><g clip-path="url(#f6b78a6b09)"><path fill="#ffb627" d="M 449.996094 876.582031 L 23.410156 449.996094 L 449.996094 23.410156 L 876.582031 449.996094 Z M 45.765625 449.996094 L 449.996094 854.230469 L 854.230469 449.996094 L 449.996094 45.765625 Z M 45.765625 449.996094 " fill-opacity="1" fill-rule="nonzero"/></g></svg>