<svg xmlns="http://www.w3.org/2000/svg" width="1200" height="1200" version="1.0" viewBox="0 0 900 900"><defs><clipPath id="a"><path d="M22.074 351.172h855.75v197.996H22.074Zm0 0"/></clipPath></defs><path fill="#fff" fill-rule="evenodd" d="M34.957 448.992c21.813 10.57 40.254 76.23 84.55 76.457l.227 8.77c0 5.394 4.274 7.195 6.297 7.195h44.524l603.316 1.797c1.8 0 6.297-1.57 6.297-6.969l.227-8.996c44.07-.223 62.511-65.887 84.546-76.23-22.035-10.567-40.476-76.227-84.546-76.454l-.227-8.769c0-5.398-4.496-7.195-6.297-7.195l-603.316-1.801H126.03c-2.023 0-6.297 1.574-6.297 6.973l-.226 8.992c-44.297.226-62.738 65.886-84.551 76.23m0 0"/><g clip-path="url(#a)"><path fill="none" stroke="#e0bf73" stroke-width="11.13488779" d="M34.957 448.992c21.813 10.57 40.254 76.23 84.55 76.457l.227 8.77c0 5.394 4.274 7.195 6.297 7.195h44.524l603.316 1.797c1.8 0 6.297-1.57 6.297-6.969l.227-8.996c44.07-.223 62.511-65.887 84.546-76.23-22.035-10.567-40.476-76.227-84.546-76.453l-.227-8.77c0-5.398-4.496-7.195-6.297-7.195l-603.316-1.801H126.03c-2.023 0-6.297 1.574-6.297 6.973l-.226 8.992c-44.297.226-62.738 65.886-84.551 76.23Zm0 0"/></g></svg>