<svg xmlns="http://www.w3.org/2000/svg" xmlns:xlink="http://www.w3.org/1999/xlink" width="285" zoomAndPan="magnify" viewBox="0 0 213.75 48" height="64" preserveAspectRatio="xMidYMid meet" version="1.0"><defs><clipPath id="1d034606b9"><path d="M 18 19 L 76 19 L 76 39.507812 L 18 39.507812 Z M 18 19 " clip-rule="nonzero"/></clipPath><clipPath id="2b61c448b2"><path d="M 3.894531 21 L 46 21 L 46 34 L 3.894531 34 Z M 3.894531 21 " clip-rule="nonzero"/></clipPath><clipPath id="69c64869e0"><path d="M 100 7.179688 L 108 7.179688 L 108 12 L 100 12 Z M 100 7.179688 " clip-rule="nonzero"/></clipPath><clipPath id="8b8c706dd3"><path d="M 56 34 L 64 34 L 64 39.507812 L 56 39.507812 Z M 56 34 " clip-rule="nonzero"/></clipPath><clipPath id="dc14f6440f"><path d="M 94 7.179688 L 97 7.179688 L 97 14 L 94 14 Z M 94 7.179688 " clip-rule="nonzero"/></clipPath><clipPath id="dc8190f77e"><path d="M 207 31 L 209.609375 31 L 209.609375 35 L 207 35 Z M 207 31 " clip-rule="nonzero"/></clipPath><clipPath id="1c38669fbd"><path d="M 56 38 L 58 38 L 58 39.507812 L 56 39.507812 Z M 56 38 " clip-rule="nonzero"/></clipPath><clipPath id="5de0a0151e"><path d="M 56 7.179688 L 58 7.179688 L 58 9 L 56 9 Z M 56 7.179688 " clip-rule="nonzero"/></clipPath><clipPath id="bdf5bac35f"><path d="M 107 7.179688 L 108 7.179688 L 108 8 L 107 8 Z M 107 7.179688 " clip-rule="nonzero"/></clipPath><clipPath id="9d7d7b9ddc"><path d="M 209 32 L 209.609375 32 L 209.609375 33 L 209 33 Z M 209 32 " clip-rule="nonzero"/></clipPath></defs><path fill="#373435" d="M 105.324219 28.257812 C 105.535156 28.152344 105.480469 28.074219 105.824219 28.152344 C 106.242188 28.257812 106.710938 29.0625 106.6875 29.292969 C 106.136719 29.320312 105.378906 28.984375 105.195312 28.722656 C 105.167969 28.671875 105.140625 28.699219 105.089844 28.59375 C 105.035156 28.515625 105.0625 28.492188 105.0625 28.414062 C 105.167969 28.308594 105.140625 28.308594 105.324219 28.257812 Z M 205.523438 27.296875 C 205.316406 27.167969 205.472656 27.167969 205.316406 26.703125 L 205.078125 26.753906 C 205.027344 26.78125 205.054688 26.78125 205 26.78125 C 204.949219 26.988281 204.398438 27.738281 204.292969 27.816406 C 204.03125 28 203.402344 28.285156 203.089844 28.308594 C 201.308594 28.515625 201.886719 27.867188 201.9375 27.6875 C 201.964844 27.503906 201.964844 27.53125 202.015625 27.351562 C 202.121094 27.011719 201.886719 26.910156 201.597656 27.011719 C 201.519531 27.273438 201.492188 27.066406 201.28125 27.480469 C 201.152344 27.738281 201.257812 27.480469 200.890625 27.84375 C 200.496094 28.285156 200.394531 28.257812 199.972656 28.464844 C 199.789062 28.570312 198.246094 28.671875 197.828125 28.59375 C 197.644531 28.542969 197.382812 28.542969 197.171875 28.542969 C 196.960938 28.492188 196.960938 28.515625 196.882812 28.335938 C 196.859375 27.816406 196.988281 27.945312 197.066406 27.53125 C 197.042969 27.53125 197.042969 27.503906 197.042969 27.503906 C 196.882812 27.402344 197.015625 27.402344 196.597656 27.429688 C 196.097656 27.609375 196.257812 27.714844 195.601562 27.945312 C 194.972656 28.152344 195.105469 28.023438 194.371094 28.285156 C 194.160156 28.359375 193.925781 28.308594 193.664062 28.359375 C 193.453125 28.386719 193.269531 28.464844 193.0625 28.515625 C 192.851562 28.570312 192.617188 28.542969 192.40625 28.59375 C 192.199219 28.671875 192.039062 28.75 191.777344 28.777344 L 189.816406 29.113281 C 189.082031 29.292969 189.054688 29.191406 188.53125 29.347656 C 188.191406 29.449219 187.433594 29.449219 187.171875 29.527344 C 186.910156 29.605469 186.910156 29.65625 186.570312 29.683594 C 185.964844 29.683594 185.703125 29.8125 185.234375 29.890625 C 184.421875 29.996094 184.867188 29.890625 183.925781 30.070312 L 181.148438 30.382812 C 180.859375 30.410156 180.207031 30.566406 179.789062 30.589844 L 178.425781 30.746094 C 177.929688 30.796875 177.457031 30.824219 176.960938 30.851562 C 176.488281 30.875 176.070312 30.980469 175.625 31.03125 C 175.207031 31.058594 174.5 31.03125 174.15625 31.109375 C 173.660156 31.210938 173.292969 31.210938 172.796875 31.265625 C 172.324219 31.316406 171.777344 31.265625 171.332031 31.34375 C 170.101562 31.523438 168.058594 31.496094 167.691406 31.550781 C 167.375 31.601562 167.402344 31.652344 167.035156 31.601562 C 166.589844 31.523438 166.671875 31.628906 166.382812 31.707031 C 166.226562 31.730469 165.910156 31.679688 165.675781 31.679688 C 165.230469 31.707031 164.707031 31.707031 164.234375 31.730469 C 163.738281 31.757812 163.1875 31.757812 162.691406 31.757812 C 162.191406 31.757812 161.800781 31.835938 161.277344 31.835938 C 160.28125 31.835938 159.3125 31.914062 158.292969 31.914062 C 156.277344 31.9375 154.207031 31.992188 152.191406 31.992188 L 149.128906 31.992188 C 148.160156 32.121094 147.113281 32.070312 146.117188 32.070312 C 144.074219 32.070312 142.03125 32.070312 139.964844 32.070312 C 137.949219 32.070312 135.933594 31.964844 133.914062 31.964844 C 132.894531 31.964844 131.925781 31.886719 130.929688 31.859375 C 130.695312 31.859375 130.511719 31.785156 130.25 31.757812 C 130.015625 31.757812 129.753906 31.757812 129.515625 31.757812 C 128.652344 31.757812 128.128906 31.679688 127.265625 31.652344 C 127.082031 31.652344 126.871094 31.550781 126.636719 31.550781 C 126.191406 31.496094 125.640625 31.496094 125.171875 31.472656 L 122.027344 31.160156 C 121.925781 31.136719 121.847656 31.109375 121.742188 31.082031 C 121.53125 31.058594 121.21875 31.058594 120.980469 31.03125 C 120.5625 31.003906 119.828125 30.851562 119.699219 30.851562 C 119.4375 30.824219 119.148438 30.824219 118.941406 30.773438 C 118.703125 30.746094 118.597656 30.695312 118.335938 30.640625 C 117.839844 30.589844 117.445312 30.566406 116.976562 30.460938 C 116.714844 30.410156 116.609375 30.382812 116.269531 30.355469 C 115.980469 30.355469 115.929688 30.28125 115.667969 30.226562 C 115.300781 30.125 115.195312 30.203125 114.410156 29.96875 C 114.199219 29.917969 113.9375 29.96875 113.703125 29.890625 C 113.414062 29.785156 113.519531 29.761719 113.128906 29.710938 L 111.898438 29.425781 C 111.660156 29.371094 111.660156 29.292969 111.292969 29.242188 C 110.902344 29.191406 110.980469 29.164062 110.691406 29.0625 L 108.9375 28.515625 C 108.78125 28.464844 108.832031 28.414062 108.675781 28.359375 C 108.570312 28.335938 108.492188 28.335938 108.386719 28.308594 C 108.152344 28.207031 108.492188 28.285156 107.863281 28.074219 C 107.785156 28.050781 107.496094 27.84375 107.417969 27.789062 L 107.210938 27.582031 C 107.132812 27.503906 107.183594 27.582031 107.132812 27.480469 C 107.027344 27.429688 106.921875 27.324219 106.84375 27.195312 C 106.398438 26.441406 106.398438 26.441406 105.796875 26.496094 C 105.613281 26.519531 105.089844 26.703125 104.957031 26.804688 C 104.644531 27.011719 104.433594 27.296875 104.277344 27.582031 C 104.199219 27.6875 104.171875 27.6875 104.148438 27.765625 C 104.042969 27.894531 104.042969 28.023438 103.964844 28.179688 C 103.675781 28.671875 103.703125 29.683594 103.804688 30.203125 C 103.910156 30.640625 103.703125 30.71875 103.441406 30.925781 C 102.863281 31.394531 102.105469 32.070312 101.476562 32.457031 C 101.109375 32.664062 100.796875 32.976562 100.453125 33.210938 L 98.699219 34.351562 C 98.570312 34.425781 98.492188 34.503906 98.386719 34.582031 C 98.253906 34.660156 98.125 34.710938 98.019531 34.789062 L 97.914062 35.050781 L 98.175781 34.972656 C 98.414062 34.996094 98.492188 34.945312 98.675781 34.84375 C 98.832031 34.738281 99.433594 34.582031 99.667969 34.503906 L 100.585938 34.117188 C 100.769531 34.011719 100.847656 34.066406 101.03125 33.960938 C 101.449219 33.648438 101.109375 34.011719 101.921875 33.546875 C 103.230469 32.769531 103.179688 32.664062 103.910156 31.679688 C 103.988281 31.523438 104.042969 31.421875 104.148438 31.265625 C 104.277344 31.109375 104.25 31.003906 104.382812 30.875 C 104.589844 30.796875 104.933594 31.136719 105.378906 31.289062 C 105.796875 31.421875 107.078125 32.199219 107.472656 31.628906 C 107.496094 31.574219 107.734375 31.210938 107.734375 31.1875 C 107.839844 30.875 107.707031 30.925781 107.941406 30.695312 C 108.335938 30.667969 108.203125 30.796875 108.519531 30.851562 L 109.671875 31.238281 C 109.855469 31.316406 110.039062 31.289062 110.246094 31.367188 C 110.535156 31.445312 110.457031 31.496094 110.847656 31.523438 C 111.164062 31.550781 111.191406 31.628906 111.453125 31.707031 L 112.628906 31.964844 C 112.867188 32.015625 113.074219 31.992188 113.308594 32.042969 C 113.492188 32.09375 113.703125 32.171875 113.886719 32.199219 C 114.121094 32.25 114.359375 32.222656 114.59375 32.277344 C 114.804688 32.300781 114.960938 32.378906 115.167969 32.40625 C 115.640625 32.484375 116.035156 32.507812 116.480469 32.613281 C 116.898438 32.691406 117.367188 32.691406 117.789062 32.769531 C 118.757812 32.925781 118.074219 32.847656 119.175781 32.925781 C 119.566406 32.949219 120.039062 33.078125 120.40625 33.105469 C 120.667969 33.132812 120.902344 33.132812 121.164062 33.132812 C 121.402344 33.15625 121.609375 33.210938 121.847656 33.234375 C 122.109375 33.234375 122.238281 33.285156 122.5 33.339844 C 122.710938 33.363281 122.945312 33.363281 123.179688 33.363281 C 124.148438 33.417969 124.933594 33.570312 125.929688 33.597656 C 126.402344 33.597656 126.898438 33.648438 127.371094 33.648438 C 127.710938 33.675781 128.367188 33.726562 128.707031 33.78125 L 133.027344 33.960938 C 133.289062 33.960938 133.707031 34.039062 134.414062 34.039062 C 136.378906 34.039062 138.289062 34.140625 140.277344 34.140625 C 141.351562 34.117188 151.40625 34.195312 152.164062 34.117188 C 152.765625 34.039062 157.085938 34.039062 158.054688 34.039062 C 158.578125 34.039062 159.078125 33.988281 159.523438 33.960938 C 160.046875 33.960938 160.4375 33.960938 160.960938 33.933594 L 165.335938 33.804688 C 165.597656 33.804688 165.753906 33.753906 166.015625 33.726562 C 166.226562 33.726562 166.460938 33.726562 166.695312 33.703125 C 168.058594 33.597656 169.65625 33.625 170.9375 33.441406 C 171.355469 33.390625 171.828125 33.390625 172.324219 33.363281 C 173.214844 33.339844 174.078125 33.15625 174.996094 33.132812 C 175.964844 33.105469 176.75 32.949219 177.746094 32.898438 C 178.214844 32.871094 178.609375 32.742188 179.054688 32.714844 C 179.550781 32.640625 179.917969 32.691406 180.414062 32.585938 C 180.886719 32.484375 181.28125 32.484375 181.804688 32.429688 C 182.167969 32.378906 182.5625 32.25 183.007812 32.222656 C 183.609375 32.199219 183.820312 32.070312 184.316406 32.015625 C 184.550781 31.992188 184.8125 31.992188 185.023438 31.9375 C 185.257812 31.914062 185.3125 31.808594 185.601562 31.785156 C 185.835938 31.757812 186.042969 31.785156 186.308594 31.730469 C 186.515625 31.707031 186.621094 31.628906 186.882812 31.574219 C 187.117188 31.550781 187.328125 31.523438 187.5625 31.496094 C 187.800781 31.472656 187.902344 31.394531 188.113281 31.34375 C 188.347656 31.289062 188.558594 31.34375 188.792969 31.265625 C 189.003906 31.210938 189.160156 31.136719 189.371094 31.109375 C 190.363281 31.003906 190.078125 30.925781 190.625 30.875 C 191.019531 30.851562 191.386719 30.695312 191.882812 30.617188 C 192.066406 30.589844 192.277344 30.488281 192.460938 30.433594 C 192.644531 30.410156 192.878906 30.382812 193.0625 30.332031 C 193.296875 30.28125 193.402344 30.203125 193.636719 30.175781 L 194.789062 29.839844 C 194.972656 29.761719 195.078125 29.683594 195.339844 29.683594 C 195.367188 29.65625 195.3125 29.65625 195.445312 29.605469 C 195.523438 29.605469 195.550781 29.605469 195.601562 29.605469 C 195.679688 29.710938 195.730469 29.8125 195.730469 29.996094 C 196.152344 30.824219 197.460938 30.773438 198.296875 30.773438 C 200.132812 30.796875 200.289062 29.839844 200.757812 29.96875 C 200.890625 29.996094 200.863281 30.070312 201.046875 30.148438 C 201.648438 30.410156 201.363281 30.332031 202.015625 30.410156 C 202.984375 30.488281 203.875 30.28125 204.292969 29.398438 C 204.371094 29.242188 204.398438 29.242188 204.449219 29.113281 C 204.816406 28.023438 205.183594 28.492188 205.367188 28.59375 C 205.523438 28.671875 205.601562 28.75 205.734375 28.828125 C 206.074219 29.035156 207.277344 29.425781 207.722656 29.164062 C 208.222656 28.855469 208.144531 28.722656 208.300781 28.515625 C 208.457031 28.308594 208.40625 28.359375 208.484375 28.101562 C 208.535156 27.84375 208.640625 27.945312 208.667969 27.660156 C 208.71875 27.296875 208.746094 26.832031 208.71875 26.46875 C 208.640625 25.277344 208.535156 25.71875 208.40625 24.9375 L 208.089844 24.03125 C 207.984375 23.824219 208.011719 23.851562 207.90625 23.589844 C 207.828125 23.332031 207.539062 22.890625 207.488281 22.789062 C 207.410156 22.527344 207.382812 22.554688 207.304688 22.347656 C 206.859375 21.363281 205.917969 20.296875 205.289062 19.441406 L 204.6875 18.796875 C 204.554688 18.664062 204.554688 18.585938 204.292969 18.585938 C 203.925781 19.367188 204.03125 19.390625 203.875 20.273438 C 203.796875 20.6875 203.796875 21.75 204.242188 21.933594 C 204.554688 22.0625 204.660156 22.242188 205.054688 22.191406 C 205.523438 22.140625 205.5 22.085938 205.734375 22.449219 C 205.996094 22.839844 206.230469 23.046875 206.363281 23.410156 C 206.414062 23.589844 206.570312 23.71875 206.730469 24.058594 C 206.832031 24.238281 206.832031 24.238281 206.9375 24.367188 C 207.070312 24.550781 207.015625 24.601562 207.09375 24.757812 C 207.175781 24.886719 207.226562 24.886719 207.304688 25.042969 C 207.59375 25.585938 207.59375 25.691406 207.777344 26.15625 C 207.828125 26.3125 207.882812 26.339844 207.933594 26.496094 C 207.960938 26.675781 208.011719 27.296875 207.933594 27.503906 C 207.855469 27.660156 207.332031 27.738281 207.175781 27.738281 C 206.992188 27.6875 206.964844 27.660156 206.703125 27.636719 C 206.570312 27.636719 206.285156 27.636719 206.179688 27.609375 C 206.046875 27.582031 206.023438 27.503906 205.839844 27.453125 C 205.679688 27.375 205.628906 27.429688 205.523438 27.296875 Z M 205.523438 27.296875 " fill-opacity="1" fill-rule="evenodd"/><g clip-path="url(#1d034606b9)"><path fill="#373435" d="M 63.644531 26.261719 C 63.722656 26.027344 63.984375 25.898438 64.296875 25.898438 C 64.453125 25.792969 64.585938 25.820312 64.691406 25.976562 C 64.769531 26.027344 64.847656 26.183594 64.898438 26.289062 C 64.953125 26.46875 65.214844 26.675781 65.160156 26.910156 C 64.664062 27.066406 64.324219 26.804688 63.957031 26.675781 C 63.800781 26.648438 63.929688 26.703125 63.773438 26.597656 C 63.746094 26.574219 63.695312 26.546875 63.667969 26.519531 C 63.589844 26.441406 63.484375 26.3125 63.644531 26.261719 Z M 63.511719 21.078125 C 63.460938 21.207031 63.40625 21.621094 63.433594 21.777344 C 63.511719 22.164062 64.636719 21.878906 65.082031 21.957031 C 65.316406 21.984375 65.292969 22.007812 65.554688 22.007812 C 65.761719 21.933594 65.972656 21.699219 66.261719 21.777344 C 66.417969 21.828125 66.390625 21.878906 66.628906 21.90625 C 67.125 22.007812 66.757812 22.007812 67.386719 22.164062 C 67.570312 22.191406 67.570312 22.242188 67.726562 22.320312 C 67.859375 22.398438 67.9375 22.371094 68.09375 22.425781 C 68.25 22.503906 68.222656 22.527344 68.433594 22.554688 C 68.617188 22.605469 68.617188 22.578125 68.695312 22.710938 C 68.644531 22.839844 68.722656 22.761719 68.589844 22.8125 L 67.804688 23.019531 C 67.414062 23.097656 67.308594 22.996094 66.890625 23.148438 C 66.601562 23.253906 66.3125 23.253906 66.078125 23.332031 C 65.421875 23.566406 64.792969 23.71875 64.347656 24.109375 C 64.191406 24.238281 64.167969 24.1875 64.035156 24.265625 C 63.773438 24.421875 63.722656 24.628906 63.5625 24.808594 C 63.328125 25.09375 63.277344 25.148438 63.199219 25.433594 C 63.117188 25.664062 63.066406 25.5625 62.988281 25.769531 C 62.832031 26.15625 62.410156 27.117188 62.097656 27.351562 C 61.757812 27.609375 61.914062 27.53125 61.46875 27.6875 C 61.050781 27.816406 61.652344 27.789062 60.632812 27.894531 C 60.210938 27.945312 60.292969 28.023438 59.820312 27.894531 C 59.296875 27.765625 59.503906 27.738281 59.269531 27.402344 C 59.164062 27.246094 58.980469 27.011719 58.878906 26.859375 C 58.800781 26.832031 58.800781 26.859375 58.71875 26.804688 C 58.589844 26.882812 58.617188 26.960938 58.589844 26.910156 C 58.589844 26.910156 58.5625 26.933594 58.5625 26.933594 C 58.589844 27.296875 58.09375 28.074219 58.066406 28.308594 C 58.039062 28.699219 58.355469 28.800781 58.589844 29.191406 C 58.746094 29.476562 58.929688 29.761719 58.980469 30.148438 C 59.085938 30.667969 58.980469 31.238281 58.746094 31.707031 C 58.640625 31.914062 58.484375 32.042969 58.378906 32.222656 C 58.273438 32.429688 58.328125 32.355469 58.171875 32.484375 C 57.832031 32.742188 57.855469 32.820312 57.386719 33.078125 C 56.941406 33.3125 57.4375 33.105469 56.757812 33.390625 C 56.601562 33.441406 56.625 33.496094 56.496094 33.546875 C 56.363281 33.625 56.285156 33.625 56.15625 33.675781 C 55.472656 33.988281 55.8125 33.882812 55.1875 34.089844 C 55.054688 34.117188 55.003906 34.167969 54.898438 34.21875 L 52.175781 35.207031 C 52.042969 35.230469 51.914062 35.230469 51.78125 35.28125 C 51.492188 35.4375 51.101562 35.515625 50.761719 35.59375 C 50.5 35.671875 50.261719 35.75 50.027344 35.800781 L 48.535156 36.136719 C 47.75 36.347656 46.992188 36.5 46.207031 36.578125 C 45.945312 36.605469 45.679688 36.707031 45.445312 36.761719 C 45.183594 36.8125 44.871094 36.785156 44.632812 36.839844 C 44.03125 36.941406 43.664062 37.019531 43.039062 37.019531 C 42.488281 37.046875 41.886719 37.148438 41.335938 37.175781 C 40.234375 37.277344 36.28125 37.277344 34.972656 37.148438 C 34.710938 37.125 34.527344 37.046875 34.214844 37.046875 C 33.898438 37.019531 33.613281 36.992188 33.324219 36.992188 C 32.746094 36.96875 32.746094 36.8125 31.726562 36.761719 L 30.15625 36.476562 C 29.839844 36.347656 29.789062 36.371094 29.394531 36.320312 L 27.980469 35.929688 C 27.695312 35.828125 27.589844 35.90625 27.25 35.75 C 27.011719 35.621094 26.832031 35.644531 26.542969 35.515625 C 26.308594 35.414062 26.070312 35.386719 25.835938 35.28125 L 23.21875 34.246094 C 22.875 34.117188 21.644531 33.46875 21.4375 33.285156 C 21.226562 33.15625 21.359375 33.234375 21.097656 33.132812 L 19.734375 32.222656 C 19.550781 32.09375 19.421875 31.9375 19.261719 31.835938 C 19.105469 31.730469 19.082031 31.808594 18.949219 31.652344 C 18.765625 31.496094 18.425781 31.160156 18.242188 31.082031 C 18.058594 31.03125 18.113281 31.058594 18.007812 31.082031 L 18.03125 31.316406 C 18.164062 31.730469 19.945312 33.417969 20.441406 33.78125 C 20.625 33.910156 20.757812 34.011719 20.886719 34.140625 C 21.304688 34.53125 22.695312 35.566406 23.191406 35.90625 C 23.402344 36.035156 23.558594 36.191406 23.6875 36.269531 L 25.15625 37.203125 C 25.652344 37.488281 26.933594 37.953125 27.511719 38.132812 L 30.078125 38.835938 C 30.339844 38.859375 30.496094 38.859375 30.785156 38.9375 C 31.019531 39.015625 31.203125 39.042969 31.4375 39.066406 C 33.007812 39.277344 32.667969 39.300781 34.421875 39.378906 C 34.972656 39.40625 35.445312 39.429688 35.996094 39.457031 C 36.882812 39.457031 41.464844 39.457031 42.410156 39.300781 L 43.847656 39.09375 C 44.109375 39.066406 44.371094 39.09375 44.660156 39.042969 C 44.921875 38.988281 45.078125 38.9375 45.316406 38.886719 C 45.550781 38.859375 45.890625 38.859375 46.101562 38.808594 L 47.410156 38.550781 C 47.59375 38.496094 47.828125 38.417969 48.039062 38.394531 C 48.195312 38.367188 48.273438 38.394531 48.429688 38.34375 C 48.535156 38.289062 48.585938 38.265625 48.71875 38.210938 C 48.953125 38.160156 49.164062 38.1875 49.398438 38.082031 C 49.660156 37.980469 49.714844 37.980469 50.054688 37.902344 L 51.625 37.433594 C 51.730469 37.382812 51.78125 37.355469 51.914062 37.304688 C 52.75 37.070312 52.804688 36.96875 53.40625 36.785156 L 54.21875 36.398438 C 54.714844 36.191406 55.839844 35.59375 56.335938 35.257812 L 57.253906 34.636719 C 57.332031 34.53125 57.253906 34.609375 57.359375 34.503906 C 57.410156 34.480469 57.386719 34.503906 57.4375 34.453125 C 57.515625 34.402344 57.515625 34.402344 57.621094 34.324219 C 57.910156 34.117188 58.195312 33.832031 58.433594 33.597656 C 59.0625 32.949219 59.375 32.714844 59.664062 31.628906 C 59.714844 31.445312 59.820312 30.460938 59.792969 30.28125 L 59.847656 30.125 C 60.003906 30.019531 60.109375 29.996094 60.371094 29.96875 C 60.5 29.96875 60.710938 29.941406 60.816406 29.863281 C 61.261719 29.605469 60.945312 29.8125 61.234375 29.710938 C 61.417969 29.632812 61.3125 29.578125 61.601562 29.476562 C 61.835938 29.398438 61.785156 29.425781 61.886719 29.214844 L 62.386719 28.542969 C 62.855469 27.789062 62.648438 27.636719 63.539062 28.230469 C 63.695312 28.335938 63.746094 28.308594 63.929688 28.359375 C 64.140625 28.4375 65.421875 29.0625 65.945312 28.386719 C 66.207031 28.050781 66.417969 27.6875 66.46875 27.296875 C 66.523438 26.988281 66.550781 27.117188 66.628906 26.933594 C 66.863281 26.234375 66.3125 25.613281 66.367188 25.199219 C 66.730469 24.964844 66.914062 24.964844 67.230469 24.886719 C 67.386719 24.835938 67.464844 24.757812 67.621094 24.707031 C 67.804688 24.652344 67.960938 24.679688 68.144531 24.628906 C 68.328125 24.578125 68.277344 24.523438 68.566406 24.472656 C 69.140625 24.421875 70.738281 24.1875 71.183594 24.214844 C 71.394531 24.214844 71.574219 24.265625 71.734375 24.265625 C 71.941406 24.292969 72.074219 24.238281 72.28125 24.292969 C 72.414062 24.316406 72.519531 24.394531 72.726562 24.421875 C 72.886719 24.445312 73.066406 24.445312 73.25 24.445312 C 74.457031 24.601562 74.011719 25.09375 74.664062 23.980469 L 75.003906 23.304688 L 75.058594 23.019531 C 75.003906 22.96875 75.003906 22.96875 74.925781 22.941406 C 74.769531 22.863281 74.875 22.941406 74.769531 22.863281 C 74.089844 22.890625 73.617188 22.710938 72.988281 22.605469 L 71.472656 22.140625 C 71.3125 22.0625 71.289062 22.007812 71.128906 21.933594 L 68.433594 20.636719 C 68.304688 20.582031 68.199219 20.558594 68.09375 20.480469 L 66.707031 19.832031 C 66.207031 19.652344 66.105469 19.367188 65.1875 19.804688 C 64.453125 20.167969 64.140625 20.144531 63.511719 21.078125 Z M 63.511719 21.078125 " fill-opacity="1" fill-rule="evenodd"/></g><g clip-path="url(#2b61c448b2)"><path fill="#373435" d="M 11.90625 26.988281 C 12.039062 27.039062 11.984375 26.988281 12.089844 27.117188 C 12.167969 27.21875 12.140625 27.167969 12.195312 27.296875 C 12.246094 27.324219 12.300781 27.453125 12.324219 27.53125 C 12.585938 28.179688 11.617188 27.660156 11.539062 27.660156 C 11.25 27.609375 11.070312 27.503906 10.859375 27.296875 C 10.492188 26.910156 11.355469 26.441406 11.90625 26.988281 Z M 35.027344 21.90625 C 34.554688 22.242188 33.820312 22.503906 33.636719 23.097656 C 33.53125 23.488281 33.21875 23.589844 33.558594 24.03125 C 33.792969 24.34375 34.238281 24.214844 34.605469 24.109375 C 34.894531 24.03125 35.417969 24.238281 35.785156 24.082031 C 36.175781 23.902344 36.4375 23.902344 36.804688 24.109375 C 37.09375 24.265625 37.460938 24.367188 37.695312 24.523438 C 37.984375 24.679688 38.375 24.707031 38.636719 24.863281 C 38.742188 24.9375 38.691406 24.808594 38.742188 24.964844 C 38.71875 25.121094 38.691406 25.121094 38.480469 25.171875 C 38.21875 25.171875 37.957031 25.433594 37.773438 25.535156 C 37.617188 25.640625 37.566406 25.585938 37.382812 25.71875 C 36.988281 26.003906 35.863281 26.46875 35.367188 26.546875 C 34.421875 26.703125 33.402344 26.726562 32.644531 26.078125 C 32.460938 25.949219 32.460938 25.925781 32.484375 25.664062 C 32.484375 25.457031 32.484375 25.328125 32.484375 25.121094 L 32.355469 24.992188 C 32.121094 24.785156 32.066406 25.222656 31.960938 25.328125 L 31.832031 25.457031 C 31.777344 25.742188 31.621094 25.792969 31.492188 26.078125 C 31.359375 26.234375 31.308594 26.363281 31.097656 26.46875 C 30.886719 26.519531 30.863281 26.597656 30.679688 26.675781 C 30.46875 26.753906 30.363281 26.726562 30.128906 26.832031 C 29.917969 26.933594 29.265625 27.117188 29.054688 27.167969 C 28.769531 27.21875 28.792969 27.246094 28.558594 27.351562 C 28.347656 27.429688 28.164062 27.375 27.980469 27.453125 C 27.71875 27.558594 27.800781 27.609375 27.433594 27.636719 C 26.726562 27.660156 26.515625 27.816406 25.574219 27.867188 C 25.101562 27.894531 24.761719 27.972656 24.238281 28 C 23.949219 28 23.925781 28.074219 23.609375 28.074219 C 23.375 28.074219 23.136719 28.074219 22.902344 28.074219 C 21.488281 28.128906 20.128906 28.101562 18.714844 28.074219 L 16.933594 27.789062 C 16.722656 27.765625 16.539062 27.660156 16.359375 27.660156 C 15.285156 27.582031 15.964844 27.53125 15.230469 27.402344 C 14.839844 27.324219 14.523438 27.167969 14.183594 27.011719 C 13.53125 26.726562 13.007812 26.3125 12.613281 25.769531 C 12.535156 25.71875 12.585938 25.769531 12.535156 25.71875 L 12.167969 25.300781 C 12.0625 25.070312 11.722656 25.070312 11.382812 25.09375 C 10.726562 25.171875 10.492188 25.457031 10.046875 26.003906 L 9.65625 26.703125 C 9.601562 26.804688 9.472656 27.453125 9.445312 27.609375 C 9.210938 28.621094 9.941406 28.75 9.417969 29.347656 C 9.210938 29.605469 7.640625 30.953125 7.351562 31.136719 L 4.15625 33.496094 C 3.945312 33.625 3.921875 33.570312 3.894531 33.855469 C 4.339844 33.988281 4.3125 33.726562 4.890625 33.570312 L 6.722656 32.742188 C 6.984375 32.613281 6.957031 32.742188 7.21875 32.5625 C 7.375 32.429688 7.480469 32.429688 7.664062 32.328125 C 8.03125 32.070312 7.902344 32.277344 8.476562 31.808594 C 8.710938 31.601562 8.894531 31.394531 9.132812 31.136719 C 9.367188 30.851562 9.472656 30.746094 9.65625 30.332031 L 10.179688 29.476562 C 10.414062 29.371094 10.464844 29.578125 10.832031 29.710938 C 11.015625 29.785156 10.964844 29.8125 11.121094 29.890625 C 11.25 29.941406 11.355469 29.917969 11.515625 29.96875 C 12.0625 30.203125 11.460938 30.046875 12.246094 30.175781 C 13.007812 30.332031 12.902344 30.640625 13.398438 29.8125 C 13.554688 29.578125 13.554688 29.347656 13.6875 29.164062 C 13.949219 29.140625 13.894531 29.269531 14.15625 29.269531 C 14.65625 29.320312 14.394531 29.320312 14.707031 29.425781 C 14.863281 29.476562 15.046875 29.476562 15.230469 29.527344 C 16.015625 29.785156 15.703125 29.632812 16.277344 29.761719 C 16.515625 29.8125 16.515625 29.890625 16.800781 29.917969 C 17.300781 29.96875 17.457031 30.046875 17.875 30.125 C 18.714844 30.253906 20.574219 30.355469 21.515625 30.253906 C 22.011719 30.203125 23.320312 30.203125 24.003906 30.148438 L 26.226562 29.8125 C 26.59375 29.710938 26.988281 29.710938 27.300781 29.605469 C 27.71875 29.476562 27.902344 29.476562 28.296875 29.320312 L 29.292969 29.007812 C 29.554688 28.929688 29.5 28.855469 29.710938 28.800781 C 30.101562 28.722656 29.945312 28.75 30.207031 28.621094 C 30.417969 28.515625 30.417969 28.570312 30.625 28.414062 C 30.757812 28.335938 31.203125 28.152344 31.386719 27.894531 C 31.4375 27.789062 31.542969 27.558594 31.621094 27.480469 C 32.039062 27.011719 32.773438 28 33.296875 28.128906 C 33.820312 28.257812 33.480469 28.335938 34.398438 28.335938 C 34.894531 28.335938 35.574219 28.207031 36.074219 28.074219 C 36.28125 28.023438 36.335938 27.921875 36.542969 27.894531 C 36.882812 27.789062 36.726562 27.816406 36.964844 27.6875 L 38.742188 26.882812 C 39.003906 26.753906 38.898438 26.804688 39.214844 26.703125 L 40.078125 26.289062 C 40.15625 26.234375 40.234375 26.234375 40.3125 26.210938 C 40.417969 26.15625 40.417969 26.132812 40.523438 26.105469 C 40.707031 26.027344 40.863281 26.027344 41.046875 25.949219 C 41.519531 25.769531 41.625 25.847656 42.148438 25.769531 C 42.828125 25.691406 42.488281 25.691406 43.351562 25.664062 C 45.316406 25.640625 44.765625 25.871094 45.289062 25.121094 C 45.445312 24.863281 45.578125 24.421875 45.761719 24.292969 C 45.890625 23.796875 45.679688 23.980469 45.261719 23.953125 C 44.949219 23.929688 44.710938 23.929688 44.425781 23.929688 C 44.03125 23.929688 44.007812 23.851562 43.691406 23.796875 C 43.457031 23.746094 43.195312 23.773438 42.933594 23.71875 L 41.519531 23.460938 L 37.722656 22.191406 C 37.277344 22.035156 36.882812 21.90625 36.464844 21.75 C 35.835938 21.515625 35.15625 21.878906 35.027344 21.90625 Z M 35.027344 21.90625 " fill-opacity="1" fill-rule="evenodd"/></g><path fill="#373435" d="M 89.222656 28.179688 C 89.039062 28.152344 89.011719 28.152344 88.910156 28 C 88.910156 27.789062 88.882812 27.972656 88.988281 27.894531 C 89.433594 27.582031 89.878906 27.324219 90.402344 27.167969 C 90.664062 27.117188 90.609375 26.960938 90.898438 27.011719 C 91.003906 27.246094 91.003906 27.453125 90.925781 27.6875 C 90.742188 28.128906 90.164062 28.101562 89.824219 28.179688 C 89.535156 28.257812 89.511719 28.335938 89.222656 28.179688 Z M 98.597656 20.609375 L 98.386719 21.722656 C 98.230469 22.371094 98.4375 22.242188 98.515625 22.734375 C 98.699219 23.773438 99.40625 25.585938 99.433594 25.742188 L 99.984375 27.144531 C 100.191406 27.402344 100.113281 27.21875 100.140625 27.609375 C 100.191406 28.101562 100.296875 28.179688 99.828125 28.386719 C 99.589844 28.515625 99.042969 28.621094 98.777344 28.492188 C 98.464844 28.335938 98.125 28.285156 97.890625 28.074219 C 97.730469 27.894531 97.445312 27.609375 97.367188 27.324219 C 97.285156 27.144531 97.207031 27.039062 97.15625 26.859375 L 96.789062 25.300781 C 96.660156 24.964844 96.710938 24.523438 96.632812 24.160156 C 96.578125 23.953125 96.5 23.851562 96.476562 23.667969 C 96.421875 23.460938 96.449219 23.332031 96.398438 23.125 C 96.292969 22.863281 96.160156 22.449219 96.136719 22.140625 C 95.976562 22.007812 95.976562 21.957031 95.953125 21.699219 C 95.925781 21.4375 95.925781 21.414062 95.691406 21.464844 C 95.636719 21.777344 95.558594 22.113281 95.480469 22.476562 C 95.375 23.046875 95.296875 22.839844 95.429688 23.460938 C 95.480469 23.796875 95.507812 24.238281 95.585938 24.523438 C 95.636719 24.707031 95.714844 24.808594 95.714844 25.015625 C 95.792969 25.925781 95.925781 25.792969 95.976562 26.546875 C 96.054688 27.273438 96.5 27.867188 95.847656 28.464844 C 95.691406 28.59375 95.375 28.828125 95.140625 28.957031 L 94.171875 29.214844 C 93.464844 29.292969 93.410156 29.164062 93.097656 29.0625 C 92.886719 29.007812 92.652344 29.007812 92.285156 28.644531 C 92.128906 28.492188 91.867188 28.128906 91.839844 27.867188 C 91.839844 27.351562 91.789062 26.132812 91.917969 25.664062 C 92.023438 25.199219 91.867188 24.964844 91.867188 24.578125 C 91.867188 24.214844 91.761719 23.851562 91.371094 23.875 C 91.210938 24.1875 91.371094 24.238281 91.210938 24.550781 C 90.925781 25.222656 91.472656 25.378906 90.296875 26.054688 C 90.164062 26.105469 90.140625 26.183594 90.007812 26.234375 C 89.902344 26.289062 89.851562 26.261719 89.71875 26.339844 C 89.355469 26.519531 88.488281 26.910156 88.175781 27.144531 C 88.175781 27.167969 88.175781 27.167969 88.148438 27.195312 L 87.941406 27.402344 C 87.886719 27.609375 87.835938 27.609375 87.730469 27.714844 C 87.46875 28.050781 87.417969 28.699219 87.390625 28.878906 C 87.3125 29.113281 87.074219 29.347656 87.257812 29.683594 C 87.441406 30.019531 87.625 29.917969 87.941406 30.019531 C 88.125 30.070312 88.125 30.148438 88.332031 30.148438 C 89.25 30.226562 89.09375 30.148438 89.640625 29.941406 C 90.21875 29.761719 89.824219 29.890625 90.324219 29.605469 C 90.558594 29.476562 90.636719 29.269531 90.820312 29.140625 C 90.871094 29.0625 90.820312 29.085938 90.898438 29.035156 C 90.949219 29.007812 90.949219 29.007812 91.003906 29.035156 C 91.082031 29.0625 91.082031 29.140625 91.109375 29.242188 C 91.082031 29.578125 91.132812 29.839844 91.292969 30.125 C 91.394531 30.304688 91.554688 30.640625 91.683594 30.746094 L 91.894531 30.953125 C 92.101562 31.316406 92.703125 31.550781 93.253906 31.679688 C 93.648438 31.757812 93.910156 31.628906 94.222656 31.601562 C 94.667969 31.550781 94.695312 31.550781 95.007812 31.34375 C 95.085938 31.316406 95.636719 30.925781 95.664062 30.925781 C 95.847656 30.71875 96.34375 29.863281 96.421875 29.605469 C 96.476562 29.371094 96.527344 29.007812 96.84375 29.035156 C 96.945312 29.214844 96.867188 29.269531 97 29.449219 C 97.339844 29.890625 97.417969 29.863281 97.574219 30.019531 C 97.707031 30.125 97.730469 30.203125 97.863281 30.304688 C 98.074219 30.433594 98.386719 30.589844 98.675781 30.640625 C 99.042969 30.71875 99.121094 30.953125 99.566406 30.796875 C 99.957031 30.667969 100.113281 30.640625 100.324219 30.382812 C 100.714844 29.941406 100.980469 28.777344 101.003906 28.179688 C 101.003906 27.867188 100.925781 28 100.898438 27.738281 L 100.820312 26.675781 C 100.796875 26.15625 100.480469 25.40625 100.351562 24.863281 C 100.273438 24.578125 100.167969 24.292969 100.089844 24.007812 L 98.9375 20.6875 C 98.9375 20.6875 98.910156 20.660156 98.910156 20.660156 C 98.882812 20.660156 98.882812 20.660156 98.859375 20.636719 Z M 98.597656 20.609375 " fill-opacity="1" fill-rule="evenodd"/><path fill="#373435" d="M 76.394531 13.660156 C 76.289062 14.441406 76.105469 14.542969 76.132812 15.085938 C 76.132812 15.398438 76.15625 15.320312 76.289062 15.503906 C 76.394531 15.683594 76.339844 15.734375 76.472656 15.890625 C 76.863281 16.382812 76.785156 16.800781 76.941406 17.1875 C 77.074219 17.523438 76.996094 17.863281 77.101562 18.199219 C 77.152344 18.355469 77.207031 18.378906 77.230469 18.640625 C 77.257812 18.820312 77.257812 19.003906 77.308594 19.183594 C 77.335938 19.367188 77.414062 19.441406 77.46875 19.597656 C 77.492188 19.753906 77.492188 19.960938 77.492188 20.144531 C 77.546875 20.480469 77.703125 20.738281 77.730469 21.078125 C 77.78125 21.90625 77.859375 21.648438 77.9375 22.007812 C 77.992188 22.191406 77.992188 22.347656 78.015625 22.503906 L 78.4375 23.875 C 78.515625 24.367188 78.644531 24.367188 78.671875 24.835938 C 78.671875 25.121094 78.722656 25.121094 78.75 25.328125 C 78.777344 25.507812 78.75 25.640625 78.800781 25.847656 C 78.960938 26.3125 78.90625 26.417969 78.699219 26.753906 C 78.460938 27.117188 77.808594 27.21875 77.386719 27.144531 C 76.96875 27.089844 76.917969 26.78125 76.785156 27.480469 C 76.761719 27.660156 76.394531 28.777344 76.445312 28.957031 C 76.550781 29.191406 77.441406 29.269531 77.441406 29.8125 C 77.414062 29.96875 77.363281 29.996094 77.335938 30.148438 C 77.207031 30.589844 77.386719 30.253906 77.125 30.875 C 77.046875 31.003906 77.074219 31.136719 76.996094 31.238281 L 76.289062 32.40625 L 75.609375 33.078125 L 74.21875 34.039062 C 74.035156 34.117188 74.089844 34.117188 73.933594 34.195312 C 73.773438 34.273438 73.695312 34.273438 73.566406 34.324219 C 73.433594 34.375 73.410156 34.425781 73.277344 34.480469 C 73.121094 34.53125 73.042969 34.503906 72.886719 34.582031 C 72.464844 34.765625 72.597656 34.660156 72.125 34.765625 C 71.996094 34.789062 71.917969 34.84375 71.8125 34.867188 C 71.394531 34.945312 69.980469 34.894531 69.507812 34.945312 C 69.324219 34.945312 69.351562 34.921875 69.21875 35.023438 C 69.21875 35.128906 69.246094 35.128906 69.273438 35.230469 C 69.585938 35.207031 69.796875 35.386719 70.082031 35.414062 C 70.84375 35.492188 70.503906 35.542969 70.894531 35.621094 C 71.183594 35.671875 71.496094 35.671875 71.8125 35.722656 C 72.097656 35.75 72.414062 35.828125 72.703125 35.851562 C 72.988281 35.90625 73.382812 35.90625 73.695312 35.929688 C 74.140625 35.929688 74.089844 36.113281 74.535156 35.90625 C 74.796875 35.777344 75.554688 35.207031 75.710938 35.023438 C 75.84375 34.789062 76.132812 34.582031 76.289062 34.425781 C 76.316406 34.375 76.367188 34.351562 76.367188 34.324219 L 76.523438 34.195312 C 76.578125 34.066406 76.578125 34.089844 76.679688 34.011719 C 76.8125 33.882812 76.761719 33.933594 76.839844 33.78125 C 77.074219 33.3125 77.335938 33.078125 77.546875 32.429688 C 77.597656 32.25 77.625 32.277344 77.675781 32.144531 C 77.78125 31.886719 77.730469 31.785156 77.859375 31.523438 C 78.121094 31.058594 77.910156 29.65625 78.148438 29.371094 C 78.199219 29.191406 78.226562 29.140625 78.382812 29.035156 C 78.539062 28.929688 78.566406 28.878906 78.722656 28.777344 C 78.933594 28.699219 79.140625 28.386719 79.246094 28.152344 C 79.507812 27.503906 79.378906 25.585938 79.378906 24.835938 C 79.378906 23.074219 79.246094 23.796875 79.140625 22.761719 L 78.699219 20.816406 C 78.671875 20.660156 78.644531 20.453125 78.617188 20.324219 C 78.566406 20.144531 78.488281 20.089844 78.460938 19.882812 C 78.410156 19.703125 78.4375 19.519531 78.410156 19.339844 C 78.382812 19.183594 78.277344 19.054688 78.253906 18.898438 C 78.199219 18.71875 77.964844 17.058594 77.886719 16.875 C 77.648438 16.359375 77.859375 16.4375 77.964844 15.941406 C 78.015625 15.65625 78.226562 15.21875 78.121094 14.984375 C 77.992188 14.777344 77.859375 14.90625 77.386719 14.515625 C 77.207031 14.363281 76.863281 14.128906 76.863281 13.871094 C 76.679688 13.660156 76.839844 13.660156 76.628906 13.507812 C 76.472656 13.53125 76.523438 13.53125 76.394531 13.660156 Z M 76.394531 13.660156 " fill-opacity="1" fill-rule="evenodd"/><path fill="#373435" d="M 47.515625 13.402344 C 47.515625 13.53125 47.488281 13.792969 47.460938 13.921875 C 47.4375 14.179688 47.355469 14.128906 47.304688 14.335938 C 47.148438 14.878906 47.332031 15.296875 47.617188 15.683594 L 47.90625 16.046875 C 47.984375 16.203125 47.933594 16.382812 47.984375 16.539062 C 48.011719 16.695312 48.089844 16.851562 48.117188 17.03125 C 48.167969 17.394531 48.195312 17.628906 48.300781 17.992188 C 48.40625 18.328125 48.378906 18.664062 48.484375 19.003906 C 48.535156 19.210938 48.5625 19.210938 48.585938 19.441406 C 48.613281 19.652344 48.640625 19.804688 48.667969 19.988281 C 48.746094 20.375 48.902344 20.507812 48.851562 21.023438 C 48.929688 21.101562 49.292969 22.761719 49.375 23.097656 C 49.398438 23.304688 49.453125 23.28125 49.503906 23.410156 C 49.554688 23.539062 49.53125 23.695312 49.554688 23.824219 L 49.714844 24.367188 C 49.820312 24.601562 49.820312 24.835938 49.84375 25.09375 C 49.921875 25.457031 50.132812 26.183594 49.898438 26.46875 C 49.871094 26.648438 49.820312 26.675781 49.636719 26.726562 C 49.292969 26.804688 49.269531 26.960938 48.875 26.960938 C 48.535156 26.960938 48.167969 26.726562 48.039062 26.832031 C 47.90625 26.960938 47.984375 27.117188 47.933594 27.296875 C 47.882812 27.453125 47.800781 27.558594 47.75 27.738281 L 47.566406 28.777344 C 47.882812 29.085938 48.640625 29.007812 48.5625 29.683594 C 48.5625 29.839844 48.484375 29.917969 48.457031 30.070312 C 48.429688 30.203125 48.429688 30.355469 48.40625 30.511719 L 48.144531 31.210938 C 47.722656 32.09375 47.042969 32.691406 46.308594 33.285156 C 45.890625 33.625 44.269531 34.402344 43.691406 34.503906 C 43.507812 34.53125 43.378906 34.503906 43.246094 34.558594 C 42.75 34.6875 42.617188 34.738281 41.910156 34.710938 C 41.570312 34.6875 41.308594 34.765625 40.996094 34.738281 C 40.707031 34.710938 40.394531 34.53125 40.261719 34.84375 C 40.339844 34.945312 40.863281 35.152344 41.046875 35.179688 C 41.414062 35.230469 41.625 35.257812 41.988281 35.359375 C 42.355469 35.464844 42.59375 35.4375 42.984375 35.464844 C 43.351562 35.515625 43.457031 35.644531 43.925781 35.644531 C 44.242188 35.644531 44.660156 35.671875 44.949219 35.722656 C 45.445312 35.828125 45.5 35.800781 45.839844 35.59375 C 46.730469 35.050781 47.617188 34.273438 48.144531 33.417969 C 48.300781 33.15625 48.351562 32.925781 48.484375 32.664062 C 48.585938 32.429688 48.746094 32.144531 48.824219 31.886719 C 49.292969 30.539062 49.136719 29.8125 49.191406 29.605469 C 49.242188 29.425781 49.242188 29.292969 49.292969 29.140625 C 49.375 28.878906 49.6875 28.777344 49.871094 28.59375 C 49.976562 28.414062 49.921875 28.515625 50.082031 28.386719 C 50.210938 28.285156 50.105469 28.308594 50.289062 28.179688 C 50.289062 27.945312 50.550781 28.179688 50.523438 26.496094 C 50.523438 26.003906 50.550781 24.058594 50.472656 23.644531 C 50.421875 23.332031 50.316406 23.148438 50.289062 22.839844 C 50.261719 22.554688 49.820312 20.429688 49.6875 20.066406 C 49.609375 19.910156 49.636719 19.832031 49.609375 19.652344 C 49.554688 19.339844 49.53125 19.15625 49.425781 18.847656 C 49.320312 18.5625 49.375 18.300781 49.292969 18.015625 C 49.214844 17.679688 49.164062 17.578125 49.136719 17.214844 C 49.085938 16.800781 49.085938 16.746094 48.980469 16.410156 C 48.824219 15.996094 49.058594 16.019531 49.113281 15.683594 C 49.164062 15.425781 49.269531 15.0625 49.242188 14.800781 C 49.136719 14.726562 48.929688 14.621094 48.824219 14.515625 C 48.71875 14.492188 48.71875 14.492188 48.640625 14.441406 C 48.535156 14.335938 48.613281 14.414062 48.5625 14.308594 C 48.429688 14.207031 48.300781 14.101562 48.195312 13.894531 C 48.089844 13.6875 47.960938 13.636719 47.960938 13.375 C 47.75 13.167969 47.933594 13.222656 47.722656 13.167969 C 47.566406 13.273438 47.539062 13.402344 47.539062 13.375 C 47.539062 13.375 47.515625 13.402344 47.515625 13.402344 Z M 47.515625 13.402344 " fill-opacity="1" fill-rule="evenodd"/><path fill="#373435" d="M 76.105469 8.296875 C 75.765625 8.503906 75.269531 8.554688 74.980469 8.734375 C 74.742188 8.867188 74.5625 8.867188 74.402344 8.96875 C 74.273438 9.046875 74.351562 9.046875 74.140625 9.097656 L 71.8125 10.058594 C 71.707031 10.109375 71.628906 10.164062 71.523438 10.214844 L 70.425781 10.707031 C 70.160156 10.785156 70.136719 10.863281 69.875 10.941406 C 69.613281 11.019531 69.480469 11.121094 69.273438 11.199219 C 68.878906 11.355469 68.511719 11.535156 68.171875 11.742188 C 67.675781 12.027344 65.160156 13.117188 64.875 13.324219 C 64.558594 13.558594 64.191406 13.6875 63.800781 13.894531 L 61.652344 15.035156 C 61.46875 15.140625 61.3125 15.191406 61.128906 15.320312 C 60.632812 15.683594 60.210938 15.917969 59.742188 16.410156 C 59.558594 16.566406 59.453125 16.644531 59.296875 16.773438 C 59.191406 16.875 59.007812 17.109375 58.929688 17.1875 C 58.800781 17.34375 58.746094 17.292969 58.71875 17.578125 L 59.007812 17.550781 C 59.164062 17.5 59.140625 17.5 59.242188 17.421875 C 59.347656 17.34375 59.402344 17.371094 59.53125 17.292969 C 59.664062 17.238281 59.609375 17.214844 59.769531 17.136719 C 59.925781 17.085938 59.925781 17.109375 60.082031 17.007812 L 61.179688 16.488281 C 61.546875 16.332031 61.914062 16.125 62.308594 15.941406 C 62.515625 15.867188 62.675781 15.789062 62.882812 15.683594 C 63.355469 15.476562 64.820312 14.699219 65.136719 14.59375 C 65.371094 14.515625 65.710938 14.285156 65.945312 14.179688 C 66.050781 14.128906 66.15625 14.128906 66.261719 14.078125 C 66.367188 14.023438 66.367188 14 66.496094 13.945312 C 67.074219 13.6875 67.203125 13.585938 67.675781 13.429688 L 70.527344 12.132812 C 70.632812 12.082031 70.710938 12.082031 70.816406 12.027344 C 70.921875 12.003906 70.972656 11.925781 71.078125 11.898438 L 71.941406 11.484375 C 72.074219 11.40625 72.152344 11.433594 72.257812 11.378906 C 72.441406 11.328125 72.386719 11.277344 72.542969 11.226562 C 72.648438 11.171875 72.726562 11.171875 72.832031 11.121094 C 73.148438 11.019531 74.585938 10.34375 74.902344 10.238281 L 75.425781 9.980469 C 75.582031 9.902344 75.660156 9.644531 75.765625 9.488281 C 76 9.175781 76.15625 8.734375 76.445312 8.503906 C 76.445312 8.476562 76.5 8.347656 76.5 8.347656 C 76.5 8.140625 76.5 8.320312 76.445312 8.242188 C 76.289062 8.164062 76.261719 8.21875 76.105469 8.296875 Z M 76.105469 8.296875 " fill-opacity="1" fill-rule="evenodd"/><path fill="#373435" d="M 52.359375 14.050781 C 52.359375 14.308594 52.226562 14.699219 52.148438 14.957031 C 52.070312 15.269531 52.121094 15.632812 52.199219 15.917969 C 52.304688 16.253906 52.28125 16.488281 52.359375 16.875 C 52.4375 17.214844 52.515625 17.34375 52.542969 17.730469 C 52.59375 18.171875 52.699219 18.300781 52.75 18.664062 C 52.804688 18.976562 52.75 19.367188 52.882812 19.625 C 53.011719 19.960938 52.988281 20.195312 53.039062 20.582031 C 53.089844 20.894531 53.222656 21.078125 53.25 21.386719 C 53.273438 21.878906 53.300781 21.933594 53.40625 22.347656 C 53.511719 22.65625 53.484375 23.019531 53.5625 23.304688 C 53.667969 23.695312 53.695312 23.796875 53.71875 24.265625 C 53.746094 24.578125 53.875 24.785156 53.929688 25.121094 C 53.980469 25.507812 53.980469 25.71875 54.085938 26.054688 C 54.164062 26.363281 54.136719 26.753906 54.242188 26.960938 C 54.398438 27.402344 54.425781 28.464844 54.609375 28.75 L 54.84375 28.722656 C 54.949219 28.542969 55.027344 27.089844 55.027344 26.78125 L 54.871094 24.785156 C 54.820312 24.472656 54.6875 24.1875 54.664062 23.851562 C 54.609375 23.019531 54.582031 23.410156 54.53125 22.941406 C 54.480469 22.292969 54.269531 21.722656 54.21875 21.101562 C 54.164062 20.714844 54.136719 20.480469 54.035156 20.167969 C 53.957031 19.859375 53.980469 19.546875 53.929688 19.234375 C 53.851562 18.847656 53.773438 18.796875 53.746094 18.300781 C 53.71875 17.941406 53.589844 17.757812 53.5625 17.421875 L 53.222656 15.582031 C 53.144531 15.425781 53.117188 15.398438 53.066406 15.164062 L 52.804688 13.871094 L 52.699219 13.738281 C 52.59375 13.636719 52.644531 13.6875 52.515625 13.660156 C 52.460938 13.765625 52.488281 13.738281 52.460938 13.871094 C 52.410156 14.101562 52.410156 14 52.359375 14.050781 Z M 52.359375 14.050781 " fill-opacity="1" fill-rule="evenodd"/><path fill="#373435" d="M 81.605469 14.230469 C 81.628906 14.59375 81.261719 14.90625 81.421875 15.917969 L 81.734375 17.707031 C 81.785156 17.964844 81.867188 18.300781 81.890625 18.5625 C 81.917969 18.949219 82.023438 19.105469 82.074219 19.441406 C 82.128906 19.78125 82.074219 19.988281 82.230469 20.351562 C 82.335938 20.609375 82.335938 20.921875 82.390625 21.230469 L 82.730469 22.996094 C 82.808594 23.28125 82.78125 23.589844 82.859375 23.902344 C 82.9375 24.214844 83.042969 24.472656 83.042969 24.757812 L 83.382812 26.519531 C 83.515625 26.859375 83.460938 27.089844 83.488281 27.480469 C 83.515625 27.816406 83.722656 27.945312 83.699219 28.308594 C 83.722656 28.386719 83.722656 28.308594 83.75 28.4375 C 83.777344 28.621094 83.699219 28.671875 83.882812 28.929688 L 84.167969 28.75 C 84.144531 27.84375 84.300781 26.753906 84.167969 25.613281 L 83.882812 23.71875 C 83.777344 23.410156 83.804688 23.125 83.722656 22.789062 L 83.542969 21.90625 C 83.488281 21.515625 83.488281 21.285156 83.382812 20.972656 C 83.253906 20.507812 83.382812 20.296875 83.148438 19.625 C 83.070312 19.441406 83.097656 19.289062 83.070312 19.105469 C 83.042969 18.691406 83.015625 18.535156 82.886719 18.226562 L 82.574219 16.410156 C 82.519531 16.226562 82.46875 16.175781 82.414062 16.019531 C 82.390625 15.917969 82.363281 15.65625 82.335938 15.527344 C 82.3125 15.035156 82.179688 15.085938 82.152344 14.648438 C 82.128906 14.230469 81.96875 14.078125 81.917969 13.792969 C 81.839844 13.765625 81.8125 13.738281 81.734375 13.714844 C 81.65625 14 81.734375 14.050781 81.605469 14.230469 Z M 81.605469 14.230469 " fill-opacity="1" fill-rule="evenodd"/><path fill="#373435" d="M 102.652344 12.390625 C 102.707031 13.300781 102.128906 13.324219 102.574219 14.878906 C 102.679688 15.191406 102.652344 15.449219 102.707031 15.734375 C 102.757812 15.941406 102.8125 15.96875 102.835938 16.125 C 102.863281 16.203125 102.890625 16.4375 102.917969 16.539062 C 102.96875 16.953125 102.941406 16.953125 103.074219 17.34375 L 103.359375 19.054688 C 103.414062 19.3125 103.542969 19.46875 103.570312 19.804688 C 103.621094 20.222656 103.597656 20.246094 103.726562 20.636719 C 103.832031 20.894531 103.78125 21.207031 103.859375 21.464844 C 104.121094 22.292969 104.042969 22.503906 104.121094 22.734375 C 104.148438 22.863281 104.199219 22.890625 104.25 23.046875 C 104.328125 23.382812 104.25 23.539062 104.382812 23.929688 L 104.695312 25.585938 L 104.722656 25.664062 C 104.855469 25.847656 104.773438 25.769531 104.90625 25.820312 C 104.984375 25.742188 104.957031 25.792969 105.011719 25.664062 C 105.035156 25.507812 104.984375 25.5625 105.0625 25.457031 C 105.089844 25.277344 105.140625 25.328125 105.140625 25.09375 C 105.140625 24.964844 105.140625 24.808594 105.140625 24.652344 L 105.140625 22.839844 C 105.117188 22.503906 105.0625 22.292969 105.035156 22.007812 C 104.984375 21.671875 105.035156 21.492188 104.957031 21.207031 C 104.878906 20.921875 104.800781 20.816406 104.773438 20.480469 C 104.671875 19.753906 104.617188 19.703125 104.539062 18.925781 C 104.488281 18.511719 104.410156 18.457031 104.355469 18.199219 C 104.304688 17.941406 104.304688 17.65625 104.25 17.394531 C 104.171875 17.109375 104.121094 16.980469 104.066406 16.667969 C 104.066406 16.410156 104.042969 16.125 103.9375 15.867188 C 103.832031 15.582031 103.859375 15.425781 103.78125 15.140625 L 103.414062 13.714844 C 103.386719 13.609375 103.359375 13.480469 103.335938 13.351562 C 103.28125 13.195312 103.230469 13.195312 103.203125 12.988281 C 103.152344 12.9375 103.179688 13.039062 103.125 12.753906 C 103.074219 12.519531 103.074219 12.339844 102.8125 12.210938 Z M 102.652344 12.390625 " fill-opacity="1" fill-rule="evenodd"/><path fill="#373435" d="M 193.953125 19.675781 C 193.875 19.832031 193.847656 19.804688 193.898438 19.988281 L 194.160156 20.011719 C 194.5 19.960938 194.972656 19.78125 195.3125 19.882812 C 195.730469 19.988281 196.152344 19.960938 196.519531 20.066406 C 196.519531 20.296875 196.257812 20.402344 195.914062 20.636719 C 195.785156 20.738281 195.707031 20.765625 195.574219 20.867188 L 194.136719 21.75 C 193.925781 21.878906 193.847656 21.828125 193.820312 22.0625 C 194.058594 22.164062 194.527344 22.085938 194.84375 22.085938 C 195.785156 22.035156 195.15625 22.0625 195.785156 21.90625 C 196.464844 21.75 197.75 20.453125 198.167969 19.9375 C 198.246094 19.804688 198.769531 19.105469 198.796875 18.925781 C 198.796875 18.742188 198.71875 18.585938 198.691406 18.484375 L 198.402344 18.199219 C 197.511719 18.148438 196.386719 18.148438 195.445312 18.171875 C 194.972656 18.199219 194.738281 18.433594 194.5 18.742188 L 194.238281 19.234375 C 194.1875 19.339844 194.160156 19.390625 194.109375 19.46875 C 194.03125 19.597656 194.03125 19.546875 193.953125 19.675781 Z M 193.953125 19.675781 " fill-opacity="1" fill-rule="evenodd"/><path fill="#373435" d="M 22.5625 19.132812 L 22.273438 19.441406 C 22.167969 19.546875 22.25 19.496094 22.144531 19.546875 C 22.117188 19.804688 21.933594 19.882812 21.828125 20.117188 C 21.699219 20.375 21.488281 20.453125 21.59375 20.738281 C 21.828125 20.816406 22.433594 20.558594 22.796875 20.582031 C 23.007812 20.609375 23.347656 20.558594 23.425781 20.738281 C 23.6875 20.714844 24.054688 20.714844 24.265625 20.792969 C 24.289062 21.023438 24.054688 21.152344 23.925781 21.308594 C 23.792969 21.4375 23.664062 21.621094 23.453125 21.722656 C 23.402344 21.855469 23.453125 21.75 23.347656 21.878906 C 23.320312 21.90625 23.296875 21.933594 23.269531 21.984375 C 23.191406 22.035156 23.136719 22.0625 23.007812 22.113281 C 22.796875 22.21875 22.851562 22.242188 22.535156 22.398438 C 22.433594 22.449219 22.378906 22.476562 22.273438 22.527344 C 22.117188 22.632812 22.089844 22.578125 22.066406 22.761719 C 22.25 22.890625 23.269531 22.789062 23.453125 22.710938 C 23.6875 22.605469 23.792969 22.578125 23.949219 22.425781 C 24.082031 22.320312 24.265625 22.191406 24.421875 22.085938 C 24.527344 22.007812 24.710938 21.855469 24.8125 21.75 C 24.996094 21.570312 25.128906 21.515625 25.234375 21.363281 L 25.964844 20.507812 C 26.125 20.195312 26.515625 19.910156 26.464844 19.441406 C 26.410156 18.769531 25.730469 18.871094 25.441406 18.871094 L 23.085938 18.898438 C 22.71875 18.925781 22.773438 19.003906 22.5625 19.132812 Z M 22.5625 19.132812 " fill-opacity="1" fill-rule="evenodd"/><path fill="#373435" d="M 31.28125 31.9375 C 31.125 32.355469 30.808594 32.171875 30.625 31.914062 C 30.496094 31.808594 30.523438 31.835938 30.363281 31.757812 C 29.710938 31.496094 29.5 30.953125 29.238281 31.757812 C 29.109375 32.121094 28.609375 32.820312 28.742188 33.15625 C 28.792969 33.3125 29.34375 33.570312 29.5 33.675781 C 29.972656 33.988281 30.3125 34.480469 30.601562 33.910156 C 30.679688 33.726562 30.730469 33.675781 30.808594 33.519531 C 30.941406 33.3125 31.070312 33.054688 31.175781 32.792969 C 31.359375 32.820312 31.960938 33.183594 31.988281 33.210938 C 32.300781 33.441406 32.199219 33.3125 32.382812 33.441406 C 32.5625 33.570312 32.484375 33.625 32.773438 33.597656 C 32.878906 33.496094 33.351562 32.664062 33.402344 32.507812 C 33.691406 31.679688 33.089844 31.367188 32.40625 31.082031 C 32.171875 30.980469 32.09375 30.773438 31.832031 30.851562 C 31.542969 30.902344 31.621094 31.160156 31.515625 31.394531 C 31.4375 31.601562 31.386719 31.472656 31.28125 31.9375 Z M 31.28125 31.9375 " fill-opacity="1" fill-rule="evenodd"/><path fill="#373435" d="M 56.914062 8.089844 L 55.917969 8.476562 C 55.632812 8.527344 55.65625 8.605469 55.421875 8.683594 C 54.976562 8.8125 52.4375 10.1875 52.097656 10.421875 C 51.808594 10.628906 50.523438 11.328125 50.367188 11.589844 C 50.183594 11.925781 50.238281 11.949219 50 12.289062 C 49.976562 12.3125 49.949219 12.367188 49.949219 12.417969 C 49.921875 12.546875 49.921875 12.3125 49.949219 12.46875 C 49.976562 12.832031 50.472656 12.339844 50.867188 12.132812 L 51.808594 11.613281 C 52.019531 11.535156 52.855469 10.964844 53.195312 10.808594 C 53.300781 10.757812 53.351562 10.785156 53.457031 10.734375 C 53.613281 10.65625 53.613281 10.578125 54.191406 10.34375 C 54.480469 10.238281 55.65625 9.59375 56.15625 9.382812 C 56.601562 9.230469 56.992188 8.660156 57.28125 8.320312 C 57.332031 8.164062 57.359375 8.21875 57.304688 8.0625 C 57.175781 7.933594 57.070312 8.035156 56.914062 8.089844 Z M 56.914062 8.089844 " fill-opacity="1" fill-rule="evenodd"/><g clip-path="url(#69c64869e0)"><path fill="#373435" d="M 107.472656 7.542969 L 107.445312 7.308594 L 107.234375 7.308594 C 107.105469 7.335938 106.398438 7.648438 106.214844 7.726562 C 106.109375 7.75 106.03125 7.75 105.925781 7.804688 L 104.695312 8.375 C 103.964844 8.734375 102.417969 9.566406 101.84375 9.980469 C 101.632812 10.164062 100.691406 10.601562 100.535156 10.863281 C 100.296875 11.226562 100.375 11.25 100.140625 11.589844 C 100.089844 11.640625 100.089844 11.640625 100.0625 11.71875 C 100.035156 11.820312 100.089844 12.027344 100.351562 11.847656 L 101.972656 10.886719 C 102.261719 10.785156 102.574219 10.523438 102.890625 10.34375 C 102.96875 10.292969 103.046875 10.292969 103.125 10.238281 C 103.492188 10.03125 103.570312 10.058594 103.648438 10.007812 C 104.277344 9.617188 104.199219 9.746094 104.589844 9.488281 L 106.085938 8.761719 C 106.1875 8.710938 106.265625 8.710938 106.347656 8.660156 C 106.765625 8.449219 107.183594 7.878906 107.472656 7.542969 Z M 107.472656 7.542969 " fill-opacity="1" fill-rule="evenodd"/></g><path fill="#373435" d="M 101.320312 38.367188 L 101.292969 38.574219 C 101.527344 38.652344 101.503906 38.550781 101.710938 38.472656 C 101.949219 38.34375 102.183594 38.1875 102.445312 38.03125 C 102.601562 37.953125 102.679688 37.902344 102.835938 37.796875 C 102.941406 37.71875 103.046875 37.640625 103.203125 37.667969 L 103.519531 37.433594 C 103.753906 37.203125 104.90625 36.683594 104.90625 36.683594 L 107.472656 35.414062 C 107.785156 35.308594 108.125 34.921875 108.335938 34.6875 C 108.464844 34.582031 108.832031 34.195312 108.648438 34.039062 C 108.464844 33.933594 108.285156 34.089844 108.101562 34.167969 C 107.785156 34.296875 106.871094 34.609375 106.527344 34.789062 L 103.648438 36.320312 C 103.519531 36.398438 103.335938 36.5 103.179688 36.605469 C 101.710938 37.617188 102.050781 36.992188 101.320312 38.367188 Z M 101.320312 38.367188 " fill-opacity="1" fill-rule="evenodd"/><path fill="#373435" d="M 85.921875 9.023438 C 85.792969 9.046875 85.53125 9.152344 85.398438 9.175781 L 84.667969 9.515625 C 84.589844 9.566406 84.511719 9.566406 84.40625 9.59375 C 84.25 9.667969 84.144531 9.746094 83.933594 9.851562 C 83.59375 10.007812 83.304688 10.164062 82.992188 10.316406 L 82.074219 10.808594 C 81.785156 10.964844 81.421875 11.171875 81.183594 11.355469 L 79.875 12.183594 C 79.429688 12.445312 79.5625 12.339844 79.246094 12.988281 C 79.195312 13.117188 79.167969 13.089844 79.117188 13.195312 C 79.039062 13.300781 79.0625 13.195312 79.0625 13.324219 C 79.0625 13.585938 79.011719 13.167969 79.089844 13.402344 C 79.089844 13.402344 79.089844 13.429688 79.089844 13.429688 C 79.167969 13.636719 79.691406 13.167969 80.007812 13.015625 L 80.949219 12.496094 C 81.261719 12.367188 81.578125 12.105469 81.867188 11.949219 L 82.597656 11.613281 C 82.675781 11.5625 83.410156 11.121094 83.828125 10.964844 L 85.296875 10.265625 C 85.636719 10.136719 86.238281 9.4375 86.394531 9.175781 L 86.449219 8.890625 C 86.160156 8.839844 86.1875 8.945312 85.921875 9.023438 Z M 85.921875 9.023438 " fill-opacity="1" fill-rule="evenodd"/><path fill="#373435" d="M 205.417969 34.296875 C 205.183594 34.273438 205.132812 34.402344 204.949219 34.480469 C 204.871094 34.503906 204.792969 34.503906 204.6875 34.558594 L 201.152344 36.554688 C 200.890625 36.761719 200.65625 36.941406 200.394531 37.097656 C 200.15625 37.226562 199.84375 37.460938 199.632812 37.667969 C 199.527344 37.746094 199.1875 38.238281 199.136719 38.417969 C 199.082031 38.601562 198.980469 38.601562 199.03125 38.757812 C 199.082031 38.78125 198.980469 38.886719 199.1875 38.730469 C 199.292969 38.652344 199.214844 38.679688 199.371094 38.628906 C 199.554688 38.574219 199.921875 38.34375 200.078125 38.238281 C 200.472656 37.953125 201.046875 37.695312 201.492188 37.433594 L 202.878906 36.65625 C 203.457031 36.292969 203.402344 36.421875 203.613281 36.292969 C 203.769531 36.191406 204.921875 35.671875 205.132812 35.671875 C 205.210938 35.542969 205.210938 35.59375 205.316406 35.492188 C 205.367188 35.4375 205.417969 35.359375 205.472656 35.28125 C 205.761719 34.996094 205.578125 35.023438 205.761719 34.894531 C 205.785156 34.710938 205.945312 34.425781 205.96875 34.167969 C 205.679688 34.140625 205.679688 34.21875 205.417969 34.296875 Z M 205.417969 34.296875 " fill-opacity="1" fill-rule="evenodd"/><path fill="#373435" d="M 43.0625 28.671875 C 42.855469 28.777344 42.75 28.777344 42.511719 28.855469 C 42.042969 29.035156 41.519531 29.292969 41.046875 29.5 L 40.078125 29.996094 C 38.898438 30.566406 37.933594 31.210938 36.882812 31.886719 C 36.464844 32.144531 36.597656 32.070312 36.28125 32.691406 C 36.175781 32.898438 36.097656 32.871094 36.074219 33.027344 C 36.074219 33.390625 36.4375 33.078125 36.597656 32.976562 L 37.75 32.300781 C 37.828125 32.25 37.90625 32.222656 38.011719 32.199219 C 38.195312 32.09375 38.324219 31.992188 38.457031 31.914062 L 39.398438 31.367188 C 39.921875 31.1875 39.582031 31.289062 39.867188 31.136719 L 42.121094 30.046875 C 42.332031 29.941406 42.410156 29.996094 42.773438 29.632812 L 43.402344 28.90625 L 43.457031 28.621094 C 43.300781 28.542969 43.21875 28.621094 43.0625 28.671875 Z M 43.0625 28.671875 " fill-opacity="1" fill-rule="evenodd"/><g clip-path="url(#8b8c706dd3)"><path fill="#373435" d="M 63.09375 34.972656 L 62.097656 35.308594 C 61.886719 35.464844 61.808594 35.386719 61.625 35.515625 L 58.980469 36.863281 C 58.851562 36.941406 58.71875 37.046875 58.589844 37.125 C 58.039062 37.488281 57.464844 37.640625 57.019531 38.238281 C 56.835938 38.496094 56.730469 38.757812 56.496094 38.988281 L 56.417969 39.277344 C 56.835938 39.25 56.863281 39.121094 57.175781 38.964844 C 57.488281 38.757812 58.40625 38.265625 58.800781 38.003906 C 59.0625 37.824219 59.425781 37.746094 59.664062 37.589844 L 61.835938 36.527344 C 61.992188 36.449219 62.019531 36.371094 62.230469 36.292969 C 62.59375 36.191406 62.753906 36.085938 63.015625 35.777344 C 63.117188 35.621094 63.199219 35.59375 63.300781 35.414062 C 63.460938 35.230469 63.511719 35.230469 63.589844 35.128906 L 63.644531 34.894531 C 63.378906 34.84375 63.355469 34.945312 63.09375 34.972656 Z M 63.09375 34.972656 " fill-opacity="1" fill-rule="evenodd"/></g><path fill="#373435" d="M 84.875 36.683594 C 84.824219 36.785156 84.378906 37.226562 84.875 37.125 C 84.953125 37.097656 85.636719 36.707031 85.742188 36.632812 C 86.160156 36.320312 87.207031 35.828125 87.546875 35.59375 L 90.847656 34.011719 L 91.839844 32.949219 C 91.867188 32.898438 91.894531 32.871094 91.894531 32.792969 C 91.894531 32.714844 91.867188 32.769531 91.867188 32.691406 L 91.683594 32.691406 C 91.472656 32.714844 91.449219 32.820312 91.1875 32.871094 C 90.871094 32.949219 90.925781 32.925781 90.6875 33.054688 L 89.222656 33.648438 C 89.09375 33.726562 88.960938 33.804688 88.804688 33.882812 L 86.605469 35.074219 C 86.054688 35.464844 86.5 35.230469 85.765625 35.59375 C 85.453125 35.75 85.347656 36.0625 85.136719 36.292969 C 85.035156 36.421875 84.929688 36.476562 84.875 36.683594 Z M 84.875 36.683594 " fill-opacity="1" fill-rule="evenodd"/><path fill="#373435" d="M 52.855469 30.566406 C 52.988281 30.226562 52.90625 29.8125 52.644531 29.683594 C 52.199219 29.476562 51.074219 29.785156 50.96875 30.226562 C 50.839844 30.773438 50.890625 30.980469 51.414062 30.796875 C 51.78125 30.667969 52.070312 30.925781 52.019531 31.316406 C 51.992188 31.523438 51.78125 31.964844 51.703125 32.171875 C 51.207031 33.261719 51.675781 33.339844 52.359375 33.496094 C 52.621094 33.570312 53.167969 33.417969 53.429688 33.339844 C 53.589844 33.285156 53.667969 33.183594 53.796875 33.105469 C 53.929688 33.027344 54.035156 32.976562 54.164062 32.898438 C 54.425781 32.742188 54.609375 32.507812 54.742188 32.277344 C 55.027344 31.757812 54.925781 31.394531 54.609375 31.628906 C 54.269531 31.886719 53.117188 32.25 52.699219 32.199219 C 52.148438 32.144531 52.59375 31.445312 52.726562 31.03125 C 52.804688 30.875 52.804688 30.71875 52.855469 30.566406 Z M 52.855469 30.566406 " fill-opacity="1" fill-rule="evenodd"/><path fill="#373435" d="M 15.964844 33.054688 C 15.859375 33.078125 15.546875 33.132812 15.441406 33.183594 L 14 33.804688 C 13.660156 33.933594 13.371094 34.140625 13.085938 34.246094 L 10.441406 35.75 C 9.210938 36.578125 9.707031 36.398438 9.394531 36.734375 C 9.289062 36.863281 9.210938 36.917969 9.15625 37.097656 C 9.078125 37.304688 9.027344 37.277344 9 37.488281 L 9.210938 37.433594 C 9.3125 37.433594 9.917969 37.046875 10.074219 36.917969 C 10.28125 36.734375 10.335938 36.8125 10.546875 36.683594 C 10.675781 36.605469 10.832031 36.527344 10.964844 36.449219 L 11.878906 35.929688 C 11.957031 35.878906 12.039062 35.878906 12.140625 35.828125 C 12.21875 35.777344 12.273438 35.75 12.351562 35.699219 L 13.269531 35.230469 C 13.425781 35.152344 13.554688 35.074219 13.738281 34.996094 C 14.027344 34.84375 14.339844 34.660156 14.683594 34.558594 C 15.046875 34.425781 15.285156 34.296875 15.546875 34.039062 C 15.597656 33.960938 15.625 33.910156 15.703125 33.832031 C 15.808594 33.726562 15.808594 33.804688 15.886719 33.675781 C 15.964844 33.519531 15.992188 33.417969 16.121094 33.285156 L 16.199219 33 Z M 15.964844 33.054688 " fill-opacity="1" fill-rule="evenodd"/><path fill="#373435" d="M 69.480469 29.214844 C 69.0625 29.527344 69.035156 29.398438 68.929688 29.605469 C 68.851562 29.8125 68.878906 29.785156 68.800781 29.96875 C 68.722656 30.125 68.722656 30.148438 68.75 30.28125 C 68.75 30.304688 68.75 30.332031 68.75 30.332031 C 68.75 30.304688 68.773438 30.332031 68.773438 30.355469 C 68.984375 30.539062 69.351562 30.046875 69.71875 30.28125 C 70.1875 30.566406 69.585938 31.601562 69.480469 32.015625 C 69.375 32.40625 69.324219 32.691406 69.664062 32.820312 C 70.136719 33.027344 70.582031 33.054688 71.210938 32.898438 C 71.394531 32.847656 71.394531 32.769531 71.574219 32.691406 C 71.863281 32.5625 71.996094 32.484375 72.28125 32.222656 C 72.386719 32.144531 72.675781 31.652344 72.703125 31.496094 C 72.703125 31.34375 72.726562 31.367188 72.675781 31.265625 C 72.441406 31.160156 72.257812 31.34375 72.019531 31.421875 C 71.8125 31.523438 71.917969 31.496094 71.601562 31.550781 C 71.261719 31.574219 70.765625 31.9375 70.320312 31.601562 C 70.265625 31.1875 70.503906 30.953125 70.582031 30.617188 C 70.738281 29.996094 70.789062 30.511719 70.816406 29.605469 L 70.398438 29.113281 L 69.980469 29.085938 C 69.898438 29.164062 70.003906 29.113281 69.875 29.164062 C 69.820312 29.191406 69.820312 29.191406 69.769531 29.191406 C 69.636719 29.191406 69.613281 29.191406 69.480469 29.214844 Z M 69.480469 29.214844 " fill-opacity="1" fill-rule="evenodd"/><path fill="#373435" d="M 45.65625 18.511719 L 45.550781 18.664062 L 45.261719 18.664062 C 45.078125 18.433594 45.132812 18.300781 45.078125 18.015625 C 44.84375 17.941406 44.816406 18.042969 44.6875 18.226562 C 44.609375 18.378906 44.53125 18.511719 44.425781 18.640625 C 44.242188 18.925781 43.953125 19.105469 43.585938 18.847656 C 43.480469 18.433594 43.796875 17.886719 43.273438 18.015625 C 43.117188 18.40625 43.21875 18.015625 43.089844 18.535156 C 43.039062 18.664062 43.011719 18.691406 42.984375 18.796875 C 42.90625 19.027344 42.855469 19.546875 42.855469 19.804688 C 42.878906 20.144531 42.855469 20.144531 43.0625 20.324219 C 43.167969 20.375 43.089844 20.296875 43.167969 20.402344 C 43.246094 20.480469 43.21875 20.507812 43.246094 20.558594 C 43.507812 20.53125 43.902344 20.609375 44.136719 20.507812 C 44.371094 20.402344 44.425781 20.117188 44.632812 19.988281 C 45.027344 19.960938 45.054688 20.039062 45.472656 19.9375 C 45.863281 19.832031 45.8125 19.882812 46.046875 19.574219 C 46.414062 19.082031 46.257812 18.613281 46.363281 17.992188 C 46.207031 17.808594 46.230469 17.785156 45.945312 17.835938 C 45.8125 18.171875 45.96875 18.355469 45.65625 18.511719 Z M 45.65625 18.511719 " fill-opacity="1" fill-rule="evenodd"/><path fill="#373435" d="M 96.082031 17.34375 C 96.003906 17.421875 96.136719 17.34375 95.976562 17.445312 C 95.925781 17.445312 95.847656 17.472656 95.847656 17.5 C 95.714844 17.523438 95.664062 17.523438 95.609375 17.421875 C 95.480469 17.394531 95.402344 17.34375 95.324219 17.238281 C 95.269531 17.007812 95.347656 16.875 95.375 16.617188 C 95.246094 16.515625 95.324219 16.515625 95.167969 16.460938 C 95.007812 16.539062 95.113281 16.460938 95.035156 16.539062 L 94.929688 16.695312 C 94.640625 17.5 94.800781 17.085938 94.640625 17.863281 C 94.617188 18.070312 94.539062 18.277344 94.617188 18.484375 L 94.929688 18.925781 C 95.21875 19.054688 95.847656 19.027344 96.082031 18.820312 C 96.238281 18.691406 96.238281 18.535156 96.449219 18.511719 C 96.945312 18.40625 97.023438 18.691406 97.628906 18.226562 C 97.808594 18.070312 97.757812 18.015625 97.914062 17.808594 C 98.175781 17.445312 97.992188 17.007812 98.074219 16.488281 C 97.96875 16.382812 97.941406 16.226562 97.730469 16.359375 C 97.601562 16.4375 97.652344 16.566406 97.601562 16.746094 C 97.546875 16.902344 97.183594 17.292969 96.945312 17.058594 C 96.789062 16.851562 97.023438 16.695312 96.816406 16.488281 C 96.476562 16.253906 96.398438 17.085938 96.082031 17.34375 Z M 96.082031 17.34375 " fill-opacity="1" fill-rule="evenodd"/><path fill="#373435" d="M 74.167969 17.863281 C 74.089844 17.964844 74.089844 17.992188 73.90625 17.964844 C 73.566406 17.941406 73.671875 17.601562 73.617188 17.371094 C 73.433594 17.34375 73.382812 17.34375 73.304688 17.472656 C 73.199219 17.601562 73.277344 17.601562 73.121094 17.730469 C 73.121094 17.964844 72.964844 18.015625 72.832031 18.121094 C 72.703125 18.277344 72.519531 18.300781 72.28125 18.25 C 72.046875 18.09375 72.152344 17.707031 72.097656 17.394531 C 71.785156 17.371094 71.941406 17.34375 71.707031 17.550781 C 71.707031 17.863281 71.496094 17.886719 71.496094 18.355469 C 71.472656 18.71875 71.339844 19.003906 71.445312 19.289062 C 71.550781 19.597656 71.628906 19.78125 71.941406 19.832031 C 72.414062 19.9375 72.542969 19.832031 72.804688 19.675781 L 73.09375 19.441406 L 73.199219 19.3125 C 73.671875 19.289062 73.460938 19.46875 74.011719 19.261719 C 74.351562 19.132812 74.457031 19.15625 74.664062 18.871094 C 74.824219 18.585938 74.925781 17.445312 74.769531 17.136719 C 74.351562 17.03125 74.507812 17.679688 74.167969 17.863281 Z M 74.167969 17.863281 " fill-opacity="1" fill-rule="evenodd"/><path fill="#373435" d="M 61.207031 14.101562 C 61.441406 14.050781 61.441406 13.816406 61.496094 13.375 C 61.523438 13.066406 61.601562 12.78125 61.546875 12.445312 C 61.523438 12.210938 61.496094 11.847656 61.417969 11.589844 C 61.363281 11.304688 61.390625 10.941406 61.3125 10.65625 C 61.285156 10.472656 61.207031 10.449219 61.179688 10.316406 C 61.128906 10.164062 61.15625 10.058594 61.101562 9.902344 C 60.972656 9.515625 60.632812 8.867188 60.394531 8.582031 C 60.316406 8.476562 60.238281 8.425781 60.132812 8.347656 C 60.03125 8.191406 60.03125 8.140625 59.769531 8.164062 C 59.742188 8.191406 59.742188 8.21875 59.714844 8.296875 C 59.636719 8.476562 59.480469 9.667969 59.53125 9.824219 C 59.558594 9.878906 59.949219 10.265625 60.003906 10.34375 C 60.210938 10.550781 60.605469 11.40625 60.65625 11.691406 C 60.710938 12.054688 60.839844 12.082031 60.894531 12.390625 C 60.945312 12.703125 61 12.910156 61.050781 13.222656 L 61.128906 14 C 61.179688 14.101562 61.15625 14.023438 61.207031 14.101562 Z M 61.207031 14.101562 " fill-opacity="1" fill-rule="evenodd"/><g clip-path="url(#dc14f6440f)"><path fill="#373435" d="M 95.898438 13.738281 C 96.082031 13.714844 96.136719 13.714844 96.1875 13.53125 L 96.292969 12.183594 C 96.265625 11.796875 96.214844 10.757812 96.082031 10.449219 C 95.976562 10.1875 96.03125 9.953125 95.898438 9.644531 C 95.691406 9.203125 95.925781 9.539062 95.558594 8.996094 C 95.429688 8.761719 95.402344 8.632812 95.167969 8.398438 C 94.957031 8.191406 94.984375 7.933594 94.640625 7.933594 C 94.511719 8.269531 94.539062 8.347656 94.511719 8.734375 C 94.511719 8.945312 94.460938 8.867188 94.460938 9.097656 C 94.355469 10.164062 94.40625 9.515625 95.007812 10.34375 C 95.085938 10.449219 95.085938 10.550781 95.140625 10.679688 C 95.53125 11.40625 95.507812 11.796875 95.636719 12.105469 C 95.820312 12.574219 95.691406 13.246094 95.898438 13.738281 Z M 95.898438 13.738281 " fill-opacity="1" fill-rule="evenodd"/></g><g clip-path="url(#dc8190f77e)"><path fill="#373435" d="M 209.453125 32.457031 C 209.347656 32.378906 209.453125 32.457031 209.347656 32.355469 L 209.164062 32.222656 C 209.113281 32.171875 209.164062 32.199219 209.113281 32.121094 C 207.410156 31.210938 208.011719 31.34375 207.199219 32.871094 C 207.09375 33.105469 207.015625 32.949219 207.042969 33.3125 C 207.277344 33.519531 207.617188 33.648438 207.90625 33.832031 L 208.324219 34.089844 C 208.5625 34.195312 208.40625 34.296875 208.824219 34.273438 L 209.554688 32.976562 C 209.609375 32.714844 209.476562 32.640625 209.453125 32.457031 Z M 209.453125 32.457031 " fill-opacity="1" fill-rule="evenodd"/></g><path fill="#373435" d="M 56.941406 21.257812 C 57.019531 21.621094 56.179688 21.933594 57.097656 22.425781 C 57.304688 22.554688 58.011719 23.046875 58.222656 23.074219 L 58.457031 23.125 C 58.617188 22.890625 58.535156 22.734375 58.800781 22.578125 C 58.773438 22.347656 58.957031 22.347656 59.035156 22.085938 C 59.085938 21.855469 59.113281 21.648438 59.0625 21.414062 C 58.980469 21.078125 58.980469 21.128906 58.71875 20.972656 C 58.535156 20.867188 58.535156 20.792969 58.222656 20.765625 C 58.011719 20.660156 57.726562 20.402344 57.4375 20.429688 C 57.253906 20.507812 57.253906 20.765625 57.097656 21.050781 Z M 56.941406 21.257812 " fill-opacity="1" fill-rule="evenodd"/><path fill="#373435" d="M 65.554688 22.007812 C 65.292969 22.007812 65.316406 21.984375 65.082031 21.957031 C 64.636719 21.878906 63.511719 22.164062 63.433594 21.777344 C 63.40625 21.621094 63.460938 21.207031 63.511719 21.078125 C 63.40625 21.128906 63.433594 21.101562 63.40625 21.257812 C 63.277344 22.269531 63.511719 22.007812 64.558594 22.035156 C 64.742188 22.0625 64.898438 22.007812 65.082031 22.035156 C 65.136719 22.035156 65.238281 22.0625 65.316406 22.085938 C 65.527344 22.113281 65.527344 22.035156 65.554688 22.007812 Z M 65.554688 22.007812 " fill-opacity="1" fill-rule="evenodd"/><path fill="#373435" d="M 73.121094 17.730469 C 73.277344 17.601562 73.199219 17.601562 73.304688 17.472656 C 73.382812 17.34375 73.433594 17.34375 73.617188 17.371094 C 73.671875 17.601562 73.566406 17.941406 73.90625 17.964844 C 74.089844 17.992188 74.089844 17.964844 74.167969 17.863281 C 73.90625 17.914062 73.933594 17.941406 73.75 17.808594 C 73.722656 17.679688 73.75 17.34375 73.59375 17.265625 C 73.410156 17.160156 73.148438 17.445312 73.121094 17.730469 Z M 73.121094 17.730469 " fill-opacity="1" fill-rule="evenodd"/><path fill="#373435" d="M 56.941406 21.257812 L 57.097656 21.050781 C 57.253906 20.765625 57.253906 20.507812 57.4375 20.429688 C 57.726562 20.402344 58.011719 20.660156 58.222656 20.765625 L 58.09375 20.609375 C 58.066406 20.582031 57.570312 20.351562 57.464844 20.351562 C 57.253906 20.453125 57.226562 20.53125 57.175781 20.738281 C 57.097656 20.972656 57.019531 21.050781 56.941406 21.257812 Z M 56.941406 21.257812 " fill-opacity="1" fill-rule="evenodd"/><path fill="#373435" d="M 205.417969 34.296875 C 205.679688 34.21875 205.679688 34.140625 205.96875 34.167969 C 205.945312 34.425781 205.785156 34.710938 205.761719 34.894531 C 205.863281 34.789062 206.074219 34.273438 206.046875 34.117188 C 205.8125 34.011719 205.550781 34.167969 205.417969 34.296875 Z M 205.417969 34.296875 " fill-opacity="1" fill-rule="evenodd"/><g clip-path="url(#1c38669fbd)"><path fill="#373435" d="M 56.496094 38.988281 C 56.46875 38.988281 56.46875 39.015625 56.46875 39.015625 C 56.335938 39.144531 56.257812 39.277344 56.285156 39.429688 C 56.363281 39.429688 56.652344 39.328125 56.78125 39.277344 L 57.175781 38.964844 C 56.863281 39.121094 56.835938 39.25 56.417969 39.277344 Z M 56.496094 38.988281 " fill-opacity="1" fill-rule="evenodd"/></g><path fill="#373435" d="M 84.167969 28.75 L 83.882812 28.929688 C 83.699219 28.671875 83.777344 28.621094 83.75 28.4375 C 83.722656 28.308594 83.722656 28.386719 83.699219 28.308594 C 83.644531 28.644531 83.671875 29.035156 84.066406 29.007812 C 84.144531 28.90625 84.167969 28.929688 84.167969 28.75 Z M 84.167969 28.75 " fill-opacity="1" fill-rule="evenodd"/><path fill="#373435" d="M 72.019531 31.421875 C 72.257812 31.34375 72.441406 31.160156 72.675781 31.265625 C 72.726562 31.367188 72.703125 31.34375 72.703125 31.496094 C 72.726562 31.472656 72.804688 31.574219 72.78125 31.109375 C 72.519531 31.136719 72.363281 31.160156 72.152344 31.289062 Z M 72.019531 31.421875 " fill-opacity="1" fill-rule="evenodd"/><path fill="#373435" d="M 102.652344 12.390625 L 102.8125 12.210938 C 103.074219 12.339844 103.074219 12.519531 103.125 12.753906 C 103.179688 13.039062 103.152344 12.9375 103.203125 12.988281 C 103.230469 12.625 103.097656 12.183594 102.785156 12.132812 C 102.707031 12.210938 102.734375 12.160156 102.707031 12.234375 C 102.652344 12.339844 102.679688 12.289062 102.652344 12.390625 Z M 102.652344 12.390625 " fill-opacity="1" fill-rule="evenodd"/><path fill="#373435" d="M 76.394531 13.660156 C 76.523438 13.53125 76.472656 13.53125 76.628906 13.507812 C 76.839844 13.660156 76.679688 13.660156 76.863281 13.871094 C 76.863281 13.6875 76.863281 13.714844 76.785156 13.558594 C 76.707031 13.375 76.761719 13.429688 76.628906 13.351562 C 76.445312 13.402344 76.417969 13.453125 76.394531 13.660156 Z M 76.394531 13.660156 " fill-opacity="1" fill-rule="evenodd"/><path fill="#373435" d="M 45.65625 18.511719 C 44.976562 18.847656 45.339844 18.199219 45.078125 18.015625 C 45.132812 18.300781 45.078125 18.433594 45.261719 18.664062 L 45.550781 18.664062 Z M 45.65625 18.511719 " fill-opacity="1" fill-rule="evenodd"/><path fill="#373435" d="M 75.710938 35.023438 L 75.871094 34.945312 C 75.894531 34.921875 75.949219 34.867188 75.972656 34.84375 C 76.054688 34.765625 76.078125 34.710938 76.15625 34.636719 C 76.316406 34.480469 76.394531 34.453125 76.523438 34.195312 L 76.367188 34.324219 C 76.367188 34.351562 76.316406 34.375 76.289062 34.425781 C 76.132812 34.582031 75.84375 34.789062 75.710938 35.023438 Z M 75.710938 35.023438 " fill-opacity="1" fill-rule="evenodd"/><path fill="#373435" d="M 58.222656 23.074219 C 58.273438 23.148438 58.222656 23.125 58.300781 23.175781 C 58.535156 23.304688 58.640625 22.917969 58.800781 22.578125 C 58.535156 22.734375 58.617188 22.890625 58.457031 23.125 Z M 58.222656 23.074219 " fill-opacity="1" fill-rule="evenodd"/><path fill="#373435" d="M 63.09375 34.972656 C 63.355469 34.945312 63.378906 34.84375 63.644531 34.894531 L 63.589844 35.128906 C 63.644531 35.074219 63.617188 35.101562 63.667969 35.023438 L 63.800781 34.816406 C 63.644531 34.789062 63.539062 34.789062 63.378906 34.84375 C 63.300781 34.84375 63.328125 34.84375 63.222656 34.894531 Z M 63.09375 34.972656 " fill-opacity="1" fill-rule="evenodd"/><path fill="#373435" d="M 9.210938 37.433594 L 9 37.488281 C 9.027344 37.277344 9.078125 37.304688 9.15625 37.097656 C 8.972656 37.226562 8.894531 37.355469 8.894531 37.589844 C 9 37.589844 9 37.640625 9.132812 37.5625 C 9.210938 37.511719 9.183594 37.488281 9.210938 37.433594 Z M 9.210938 37.433594 " fill-opacity="1" fill-rule="evenodd"/><path fill="#373435" d="M 52.359375 14.050781 C 52.410156 14 52.410156 14.101562 52.460938 13.871094 C 52.488281 13.738281 52.460938 13.765625 52.515625 13.660156 C 52.644531 13.6875 52.59375 13.636719 52.699219 13.738281 L 52.804688 13.871094 C 52.777344 13.738281 52.75 13.609375 52.621094 13.585938 C 52.410156 13.558594 52.382812 13.609375 52.359375 14.050781 Z M 52.359375 14.050781 " fill-opacity="1" fill-rule="evenodd"/><path fill="#373435" d="M 95.691406 21.464844 C 95.925781 21.414062 95.925781 21.4375 95.953125 21.699219 C 95.976562 21.957031 95.976562 22.007812 96.136719 22.140625 C 96.03125 21.90625 96.03125 21.957031 96.003906 21.699219 C 96.003906 21.464844 95.976562 21.363281 95.769531 21.335938 C 95.691406 21.414062 95.769531 21.230469 95.691406 21.464844 Z M 95.691406 21.464844 " fill-opacity="1" fill-rule="evenodd"/><path fill="#373435" d="M 31.832031 25.457031 L 31.960938 25.328125 C 32.066406 25.222656 32.121094 24.785156 32.355469 24.992188 L 32.484375 25.121094 C 32.460938 24.9375 32.40625 24.914062 32.25 24.863281 C 32.09375 24.9375 32.066406 24.9375 32.015625 25.121094 C 31.9375 25.328125 31.910156 25.300781 31.832031 25.457031 Z M 31.832031 25.457031 " fill-opacity="1" fill-rule="evenodd"/><path fill="#373435" d="M 81.605469 14.230469 C 81.734375 14.050781 81.65625 14 81.734375 13.714844 C 81.8125 13.738281 81.839844 13.765625 81.917969 13.792969 C 81.867188 13.609375 81.867188 13.609375 81.707031 13.609375 C 81.605469 13.792969 81.628906 14.023438 81.605469 14.230469 Z M 81.605469 14.230469 " fill-opacity="1" fill-rule="evenodd"/><path fill="#373435" d="M 205.078125 26.753906 L 205.316406 26.703125 C 205.472656 27.167969 205.316406 27.167969 205.523438 27.296875 C 205.417969 27.039062 205.5 27.066406 205.417969 26.804688 C 205.394531 26.726562 205.339844 26.597656 205.210938 26.648438 C 205 26.703125 205.183594 26.648438 205.078125 26.753906 Z M 205.078125 26.753906 " fill-opacity="1" fill-rule="evenodd"/><path fill="#373435" d="M 47.515625 13.402344 C 47.515625 13.402344 47.539062 13.375 47.539062 13.375 C 47.539062 13.402344 47.566406 13.273438 47.722656 13.167969 C 47.933594 13.222656 47.75 13.167969 47.960938 13.375 C 47.933594 13.167969 47.933594 13.089844 47.722656 13.039062 C 47.566406 13.144531 47.539062 13.222656 47.515625 13.402344 Z M 47.515625 13.402344 " fill-opacity="1" fill-rule="evenodd"/><path fill="#373435" d="M 84.875 37.125 C 84.378906 37.226562 84.824219 36.785156 84.875 36.683594 L 84.824219 36.734375 C 84.589844 36.917969 84.484375 36.96875 84.613281 37.226562 C 84.902344 37.253906 84.796875 37.226562 84.875 37.125 Z M 84.875 37.125 " fill-opacity="1" fill-rule="evenodd"/><path fill="#373435" d="M 85.921875 9.023438 C 86.1875 8.945312 86.160156 8.839844 86.449219 8.890625 L 86.394531 9.175781 C 86.472656 9.152344 86.472656 9.203125 86.527344 9.074219 C 86.605469 8.867188 86.421875 8.710938 86.054688 8.917969 Z M 85.921875 9.023438 " fill-opacity="1" fill-rule="evenodd"/><path fill="#373435" d="M 58.640625 17.445312 L 58.617188 17.65625 L 58.800781 17.65625 C 58.800781 17.65625 58.878906 17.628906 58.878906 17.628906 C 59.085938 17.550781 58.929688 17.628906 59.007812 17.550781 L 58.71875 17.578125 C 58.746094 17.292969 58.800781 17.34375 58.929688 17.1875 C 58.746094 17.265625 58.71875 17.292969 58.640625 17.445312 Z M 58.640625 17.445312 " fill-opacity="1" fill-rule="evenodd"/><path fill="#373435" d="M 205.132812 35.671875 C 205.417969 35.566406 205.339844 35.492188 205.5 35.335938 C 205.628906 35.207031 205.707031 35.152344 205.761719 34.894531 C 205.578125 35.023438 205.761719 34.996094 205.472656 35.28125 C 205.417969 35.359375 205.367188 35.4375 205.316406 35.492188 C 205.210938 35.59375 205.210938 35.542969 205.132812 35.671875 Z M 205.132812 35.671875 " fill-opacity="1" fill-rule="evenodd"/><path fill="#373435" d="M 199.371094 38.628906 C 199.214844 38.679688 199.292969 38.652344 199.1875 38.730469 C 198.980469 38.886719 199.082031 38.78125 199.03125 38.757812 C 198.980469 38.601562 199.082031 38.601562 199.136719 38.417969 C 199.136719 38.417969 199.03125 38.472656 198.980469 38.601562 C 198.925781 38.757812 198.925781 38.730469 199.003906 38.859375 C 199.1875 38.886719 199.136719 38.886719 199.242188 38.78125 Z M 199.371094 38.628906 " fill-opacity="1" fill-rule="evenodd"/><path fill="#373435" d="M 75.003906 23.304688 C 75.003906 23.28125 75.03125 23.28125 75.03125 23.28125 C 75.085938 23.359375 75.371094 22.789062 74.769531 22.863281 C 74.875 22.941406 74.769531 22.863281 74.925781 22.941406 C 75.003906 22.96875 75.003906 22.96875 75.058594 23.019531 Z M 75.003906 23.304688 " fill-opacity="1" fill-rule="evenodd"/><path fill="#373435" d="M 98.175781 34.972656 L 97.914062 35.050781 L 98.019531 34.789062 C 97.96875 34.816406 97.914062 34.789062 97.863281 34.945312 C 97.808594 35.074219 97.835938 35.023438 97.890625 35.152344 C 98.074219 35.152344 98.074219 35.128906 98.175781 34.972656 Z M 98.175781 34.972656 " fill-opacity="1" fill-rule="evenodd"/><path fill="#373435" d="M 15.964844 33.054688 L 16.199219 33 L 16.121094 33.285156 C 16.253906 33.183594 16.359375 33.105469 16.253906 32.949219 C 16.175781 32.925781 16.199219 32.871094 16.09375 32.925781 C 15.9375 32.976562 16.015625 32.949219 15.964844 33.054688 Z M 15.964844 33.054688 " fill-opacity="1" fill-rule="evenodd"/><path fill="#373435" d="M 31.28125 31.9375 L 31.152344 32.042969 C 30.96875 32.171875 30.941406 32.042969 30.625 31.914062 C 30.808594 32.171875 31.125 32.355469 31.28125 31.9375 Z M 31.28125 31.9375 " fill-opacity="1" fill-rule="evenodd"/><path fill="#373435" d="M 43.0625 28.671875 C 43.21875 28.621094 43.300781 28.542969 43.457031 28.621094 L 43.402344 28.90625 C 43.769531 28.699219 43.429688 28.335938 43.0625 28.671875 Z M 43.0625 28.671875 " fill-opacity="1" fill-rule="evenodd"/><path fill="#373435" d="M 76.105469 8.296875 C 76.261719 8.21875 76.289062 8.164062 76.445312 8.242188 C 76.5 8.320312 76.5 8.140625 76.5 8.347656 C 76.5 8.347656 76.445312 8.476562 76.445312 8.503906 C 76.601562 8.375 76.601562 8.320312 76.523438 8.164062 C 76.367188 8.113281 76.238281 8.089844 76.105469 8.296875 Z M 76.105469 8.296875 " fill-opacity="1" fill-rule="evenodd"/><path fill="#373435" d="M 23.425781 20.738281 C 23.347656 20.558594 23.007812 20.609375 22.796875 20.582031 C 22.902344 20.738281 23.191406 20.660156 23.425781 20.738281 Z M 23.425781 20.738281 " fill-opacity="1" fill-rule="evenodd"/><path fill="#373435" d="M 104.695312 25.585938 C 104.695312 25.792969 104.722656 25.820312 104.878906 25.898438 C 105.0625 25.820312 105.117188 25.71875 105.0625 25.457031 C 104.984375 25.5625 105.035156 25.507812 105.011719 25.664062 C 104.957031 25.792969 104.984375 25.742188 104.90625 25.820312 C 104.773438 25.769531 104.855469 25.847656 104.722656 25.664062 Z M 104.695312 25.585938 " fill-opacity="1" fill-rule="evenodd"/><path fill="#373435" d="M 59.792969 30.28125 L 59.898438 30.203125 C 60.210938 29.941406 60.1875 30.175781 60.371094 29.96875 C 60.109375 29.996094 60.003906 30.019531 59.847656 30.125 Z M 59.792969 30.28125 " fill-opacity="1" fill-rule="evenodd"/><path fill="#373435" d="M 101.710938 38.472656 C 101.503906 38.550781 101.527344 38.652344 101.292969 38.574219 L 101.320312 38.367188 C 101.214844 38.445312 101.292969 38.238281 101.214844 38.496094 C 101.34375 38.835938 101.554688 38.628906 101.710938 38.472656 Z M 101.710938 38.472656 " fill-opacity="1" fill-rule="evenodd"/><g clip-path="url(#5de0a0151e)"><path fill="#373435" d="M 56.914062 8.089844 C 57.070312 8.035156 57.175781 7.933594 57.304688 8.0625 C 57.359375 8.21875 57.332031 8.164062 57.28125 8.320312 C 57.59375 8.140625 57.304688 7.726562 56.914062 8.089844 Z M 56.914062 8.089844 " fill-opacity="1" fill-rule="evenodd"/></g><path fill="#373435" d="M 194.160156 20.011719 L 193.898438 19.988281 C 193.847656 19.804688 193.875 19.832031 193.953125 19.675781 C 193.953125 19.675781 193.714844 19.726562 193.847656 19.960938 C 193.847656 20.011719 193.925781 20.066406 193.976562 20.066406 C 194.214844 20.117188 194.136719 20.039062 194.160156 20.011719 Z M 194.160156 20.011719 " fill-opacity="1" fill-rule="evenodd"/><path fill="#373435" d="M 64.898438 26.289062 C 64.847656 26.183594 64.769531 26.027344 64.691406 25.976562 C 64.585938 25.820312 64.453125 25.792969 64.296875 25.898438 C 64.792969 25.898438 64.613281 26.078125 64.898438 26.289062 Z M 64.898438 26.289062 " fill-opacity="1" fill-rule="evenodd"/><path fill="#373435" d="M 18.03125 31.316406 L 18.007812 31.082031 C 18.113281 31.058594 18.058594 31.03125 18.242188 31.082031 C 18.164062 31.003906 18.214844 30.925781 17.980469 30.980469 C 17.851562 31.34375 18.03125 31.289062 18.03125 31.316406 Z M 18.03125 31.316406 " fill-opacity="1" fill-rule="evenodd"/><path fill="#373435" d="M 69.480469 29.214844 C 69.613281 29.191406 69.636719 29.191406 69.769531 29.191406 C 69.820312 29.191406 69.820312 29.191406 69.875 29.164062 C 70.003906 29.113281 69.898438 29.164062 69.980469 29.085938 C 69.820312 29.085938 69.558594 29.0625 69.480469 29.214844 Z M 69.480469 29.214844 " fill-opacity="1" fill-rule="evenodd"/><path fill="#373435" d="M 71.707031 17.550781 C 71.941406 17.34375 71.785156 17.371094 72.097656 17.394531 L 72.046875 17.265625 C 71.8125 17.292969 71.757812 17.34375 71.707031 17.550781 Z M 71.707031 17.550781 " fill-opacity="1" fill-rule="evenodd"/><path fill="#373435" d="M 78.148438 29.371094 C 78.332031 29.214844 78.171875 29.269531 78.460938 29.0625 L 78.722656 28.777344 C 78.566406 28.878906 78.539062 28.929688 78.382812 29.035156 C 78.226562 29.140625 78.199219 29.191406 78.148438 29.371094 Z M 78.148438 29.371094 " fill-opacity="1" fill-rule="evenodd"/><path fill="#373435" d="M 58.800781 17.65625 L 58.617188 17.65625 L 58.640625 17.445312 C 58.535156 17.523438 58.640625 17.371094 58.535156 17.550781 C 58.457031 17.65625 58.511719 17.628906 58.511719 17.707031 C 58.695312 17.730469 58.667969 17.757812 58.800781 17.65625 Z M 58.800781 17.65625 " fill-opacity="1" fill-rule="evenodd"/><path fill="#373435" d="M 58.5625 26.933594 C 58.5625 26.933594 58.589844 26.910156 58.589844 26.910156 C 58.617188 26.960938 58.589844 26.882812 58.71875 26.804688 C 58.800781 26.859375 58.800781 26.832031 58.878906 26.859375 C 58.800781 26.726562 58.824219 26.726562 58.667969 26.675781 C 58.535156 26.804688 58.5625 26.78125 58.5625 26.933594 Z M 58.5625 26.933594 " fill-opacity="1" fill-rule="evenodd"/><path fill="#373435" d="M 38.480469 25.171875 C 38.691406 25.121094 38.71875 25.121094 38.742188 24.964844 C 38.691406 24.808594 38.742188 24.9375 38.636719 24.863281 L 38.535156 25.121094 C 38.535156 25.121094 38.535156 25.148438 38.507812 25.148438 C 38.507812 25.148438 38.480469 25.171875 38.480469 25.171875 Z M 38.480469 25.171875 " fill-opacity="1" fill-rule="evenodd"/><g clip-path="url(#bdf5bac35f)"><path fill="#373435" d="M 107.472656 7.542969 C 107.523438 7.492188 107.523438 7.542969 107.523438 7.414062 C 107.523438 7.308594 107.445312 7.234375 107.367188 7.234375 C 107.132812 7.257812 107.289062 7.257812 107.234375 7.308594 L 107.445312 7.308594 Z M 107.472656 7.542969 " fill-opacity="1" fill-rule="evenodd"/></g><path fill="#373435" d="M 69.273438 35.230469 C 69.246094 35.128906 69.21875 35.128906 69.21875 35.023438 C 69.351562 34.921875 69.324219 34.945312 69.507812 34.945312 C 69.480469 34.921875 69.585938 34.894531 69.375 34.867188 C 69.191406 34.867188 69.167969 34.996094 69.140625 35.101562 Z M 69.273438 35.230469 " fill-opacity="1" fill-rule="evenodd"/><path fill="#373435" d="M 90.820312 29.140625 L 91.109375 29.242188 C 91.082031 29.140625 91.082031 29.0625 91.003906 29.035156 C 90.949219 29.007812 90.949219 29.007812 90.898438 29.035156 C 90.820312 29.085938 90.871094 29.0625 90.820312 29.140625 Z M 90.820312 29.140625 " fill-opacity="1" fill-rule="evenodd"/><path fill="#373435" d="M 91.839844 32.949219 C 91.867188 32.925781 91.945312 32.898438 91.972656 32.792969 C 92 32.691406 91.972656 32.742188 91.945312 32.640625 C 91.789062 32.613281 91.789062 32.585938 91.683594 32.691406 L 91.867188 32.691406 C 91.867188 32.769531 91.894531 32.714844 91.894531 32.792969 C 91.894531 32.871094 91.867188 32.898438 91.839844 32.949219 Z M 91.839844 32.949219 " fill-opacity="1" fill-rule="evenodd"/><path fill="#373435" d="M 63.957031 26.675781 C 63.824219 26.546875 63.746094 26.546875 63.644531 26.417969 L 63.644531 26.261719 C 63.484375 26.3125 63.589844 26.441406 63.667969 26.519531 C 63.695312 26.546875 63.746094 26.574219 63.773438 26.597656 C 63.929688 26.703125 63.800781 26.648438 63.957031 26.675781 Z M 63.957031 26.675781 " fill-opacity="1" fill-rule="evenodd"/><path fill="#373435" d="M 89.222656 28.179688 L 89.144531 28.128906 C 89.144531 28.128906 89.144531 28.128906 89.117188 28.128906 L 88.988281 27.894531 C 88.882812 27.972656 88.910156 27.789062 88.910156 28 C 89.011719 28.152344 89.039062 28.152344 89.222656 28.179688 Z M 89.222656 28.179688 " fill-opacity="1" fill-rule="evenodd"/><path fill="#373435" d="M 98.597656 20.609375 L 98.859375 20.636719 C 98.882812 20.660156 98.882812 20.660156 98.910156 20.660156 C 98.910156 20.660156 98.9375 20.6875 98.9375 20.6875 C 98.859375 20.53125 98.859375 20.507812 98.675781 20.507812 C 98.621094 20.558594 98.648438 20.480469 98.597656 20.609375 Z M 98.597656 20.609375 " fill-opacity="1" fill-rule="evenodd"/><path fill="#373435" d="M 105.195312 28.722656 L 105.117188 28.464844 L 105.296875 28.285156 C 105.296875 28.257812 105.324219 28.257812 105.324219 28.257812 C 105.140625 28.308594 105.167969 28.308594 105.0625 28.414062 C 105.0625 28.492188 105.035156 28.515625 105.089844 28.59375 C 105.140625 28.699219 105.167969 28.671875 105.195312 28.722656 Z M 105.195312 28.722656 " fill-opacity="1" fill-rule="evenodd"/><path fill="#373435" d="M 70.816406 29.605469 C 70.765625 29.398438 70.582031 29.164062 70.398438 29.113281 Z M 70.816406 29.605469 " fill-opacity="1" fill-rule="evenodd"/><path fill="#373435" d="M 95.609375 17.421875 C 95.664062 17.523438 95.714844 17.523438 95.847656 17.5 C 95.847656 17.472656 95.925781 17.445312 95.976562 17.445312 C 96.136719 17.34375 96.003906 17.421875 96.082031 17.34375 C 95.847656 17.394531 95.875 17.421875 95.609375 17.421875 Z M 95.609375 17.421875 " fill-opacity="1" fill-rule="evenodd"/><path fill="#373435" d="M 196.597656 27.429688 C 197.015625 27.402344 196.882812 27.402344 197.042969 27.503906 C 197.042969 27.503906 197.042969 27.53125 197.066406 27.53125 C 197.042969 27.429688 197.042969 27.375 196.910156 27.351562 C 196.882812 27.351562 196.753906 27.351562 196.753906 27.351562 C 196.597656 27.402344 196.648438 27.402344 196.597656 27.429688 Z M 196.597656 27.429688 " fill-opacity="1" fill-rule="evenodd"/><path fill="#373435" d="M 195.339844 29.683594 C 195.496094 29.683594 195.574219 29.632812 195.628906 29.734375 C 195.679688 29.8125 195.628906 29.839844 195.730469 29.996094 C 195.730469 29.8125 195.679688 29.710938 195.601562 29.605469 C 195.550781 29.605469 195.523438 29.605469 195.445312 29.605469 C 195.3125 29.65625 195.367188 29.65625 195.339844 29.683594 Z M 195.339844 29.683594 " fill-opacity="1" fill-rule="evenodd"/><path fill="#373435" d="M 49.871094 28.59375 C 50.105469 28.464844 50.183594 28.4375 50.289062 28.179688 C 50.105469 28.308594 50.210938 28.285156 50.082031 28.386719 C 49.921875 28.515625 49.976562 28.414062 49.871094 28.59375 Z M 49.871094 28.59375 " fill-opacity="1" fill-rule="evenodd"/><path fill="#373435" d="M 22.144531 19.546875 C 22.25 19.496094 22.167969 19.546875 22.273438 19.441406 L 22.5625 19.132812 C 22.351562 19.234375 22.25 19.3125 22.144531 19.546875 Z M 22.144531 19.546875 " fill-opacity="1" fill-rule="evenodd"/><path fill="#373435" d="M 23.007812 22.113281 C 23.136719 22.0625 23.191406 22.035156 23.269531 21.984375 C 23.296875 21.933594 23.320312 21.90625 23.347656 21.878906 C 23.453125 21.75 23.402344 21.855469 23.453125 21.722656 Z M 23.007812 22.113281 " fill-opacity="1" fill-rule="evenodd"/><path fill="#373435" d="M 31.097656 26.46875 C 31.308594 26.363281 31.359375 26.234375 31.492188 26.078125 C 31.332031 26.132812 31.332031 26.183594 31.203125 26.339844 C 31.097656 26.441406 31.175781 26.339844 31.097656 26.46875 Z M 31.097656 26.46875 " fill-opacity="1" fill-rule="evenodd"/><g clip-path="url(#9d7d7b9ddc)"><path fill="#373435" d="M 209.453125 32.457031 C 209.398438 32.277344 209.292969 32.199219 209.113281 32.121094 C 209.164062 32.199219 209.113281 32.171875 209.164062 32.222656 L 209.347656 32.355469 C 209.453125 32.457031 209.347656 32.378906 209.453125 32.457031 Z M 209.453125 32.457031 " fill-opacity="1" fill-rule="evenodd"/></g><path fill="#373435" d="M 68.589844 22.8125 C 68.722656 22.761719 68.644531 22.839844 68.695312 22.710938 C 68.617188 22.578125 68.617188 22.605469 68.433594 22.554688 L 68.589844 22.683594 Z M 68.589844 22.8125 " fill-opacity="1" fill-rule="evenodd"/><path fill="#373435" d="M 57.253906 34.636719 C 57.359375 34.582031 57.4375 34.558594 57.488281 34.503906 C 57.621094 34.402344 57.570312 34.453125 57.621094 34.324219 C 57.515625 34.402344 57.515625 34.402344 57.4375 34.453125 C 57.386719 34.503906 57.410156 34.480469 57.359375 34.503906 C 57.253906 34.609375 57.332031 34.53125 57.253906 34.636719 Z M 57.253906 34.636719 " fill-opacity="1" fill-rule="evenodd"/><path fill="#373435" d="M 102.679688 11.664062 L 102.757812 11.820312 C 102.890625 11.769531 102.863281 11.796875 102.890625 11.691406 Z M 102.679688 11.664062 " fill-opacity="1" fill-rule="evenodd"/><path fill="#373435" d="M 12.613281 25.769531 L 12.273438 25.378906 C 12.21875 25.300781 12.300781 25.355469 12.167969 25.300781 L 12.535156 25.71875 C 12.585938 25.769531 12.535156 25.71875 12.613281 25.769531 Z M 12.613281 25.769531 " fill-opacity="1" fill-rule="evenodd"/><path fill="#373435" d="M 198.691406 18.484375 C 198.636719 18.300781 198.585938 18.25 198.402344 18.199219 Z M 198.691406 18.484375 " fill-opacity="1" fill-rule="evenodd"/><path fill="#373435" d="M 107.417969 27.789062 C 107.339844 27.636719 107.316406 27.582031 107.132812 27.480469 C 107.183594 27.582031 107.132812 27.503906 107.210938 27.582031 Z M 107.417969 27.789062 " fill-opacity="1" fill-rule="evenodd"/><path fill="#373435" d="M 49.636719 26.726562 C 49.820312 26.675781 49.871094 26.648438 49.898438 26.46875 L 49.6875 26.675781 C 49.6875 26.675781 49.660156 26.703125 49.660156 26.703125 C 49.660156 26.703125 49.636719 26.726562 49.636719 26.726562 Z M 49.636719 26.726562 " fill-opacity="1" fill-rule="evenodd"/><path fill="#373435" d="M 197.171875 28.542969 C 197.144531 28.515625 197.144531 28.492188 197.121094 28.515625 C 197.121094 28.515625 197.121094 28.492188 197.09375 28.492188 L 196.988281 28.414062 C 196.988281 28.386719 196.960938 28.386719 196.960938 28.386719 L 196.882812 28.335938 C 196.960938 28.515625 196.960938 28.492188 197.171875 28.542969 Z M 197.171875 28.542969 " fill-opacity="1" fill-rule="evenodd"/><path fill="#373435" d="M 87.941406 27.402344 L 88.148438 27.195312 C 88.175781 27.167969 88.175781 27.167969 88.175781 27.144531 C 87.992188 27.21875 87.992188 27.21875 87.941406 27.402344 Z M 87.941406 27.402344 " fill-opacity="1" fill-rule="evenodd"/><path fill="#373435" d="M 12.195312 27.296875 C 12.140625 27.167969 12.167969 27.21875 12.089844 27.117188 C 11.984375 26.988281 12.039062 27.039062 11.90625 26.988281 Z M 12.195312 27.296875 " fill-opacity="1" fill-rule="evenodd"/><path fill="#373435" d="M 43.246094 20.558594 C 43.21875 20.507812 43.246094 20.480469 43.167969 20.402344 C 43.089844 20.296875 43.167969 20.375 43.0625 20.324219 C 43.140625 20.480469 43.117188 20.453125 43.246094 20.558594 Z M 43.246094 20.558594 " fill-opacity="1" fill-rule="evenodd"/><path fill="#373435" d="M 48.824219 14.515625 L 48.5625 14.308594 C 48.613281 14.414062 48.535156 14.335938 48.640625 14.441406 C 48.71875 14.492188 48.71875 14.492188 48.824219 14.515625 Z M 48.824219 14.515625 " fill-opacity="1" fill-rule="evenodd"/><path fill="#373435" d="M 103.203125 37.667969 C 103.386719 37.589844 103.414062 37.5625 103.519531 37.433594 Z M 103.203125 37.667969 " fill-opacity="1" fill-rule="evenodd"/><path fill="#373435" d="M 91.894531 30.953125 L 91.683594 30.746094 C 91.734375 30.875 91.65625 30.773438 91.761719 30.875 C 91.867188 30.980469 91.816406 30.925781 91.894531 30.953125 Z M 91.894531 30.953125 " fill-opacity="1" fill-rule="evenodd"/><path fill="#373435" d="M 72.804688 19.675781 C 72.964844 19.625 72.988281 19.597656 73.09375 19.441406 Z M 72.804688 19.675781 " fill-opacity="1" fill-rule="evenodd"/></svg>